<?xml version="1.0" encoding="UTF-8" standalone="no"?>
<!-- Created with Inkscape (http://www.inkscape.org/) -->

<svg
   xmlns:dc="http://purl.org/dc/elements/1.1/"
   xmlns:cc="http://creativecommons.org/ns#"
   xmlns:rdf="http://www.w3.org/1999/02/22-rdf-syntax-ns#"
   xmlns:svg="http://www.w3.org/2000/svg"
   xmlns="http://www.w3.org/2000/svg"
   xmlns:sodipodi="http://sodipodi.sourceforge.net/DTD/sodipodi-0.dtd"
   xmlns:inkscape="http://www.inkscape.org/namespaces/inkscape"
   width="200mm"
   height="200mm"
   viewBox="0 0 200 200"
   version="1.1"
   id="svg8"
   inkscape:version="0.92.2 5c3e80d, 2017-08-06"
   sodipodi:docname="rxndif.svg">
  <defs
     id="defs2" />
  <sodipodi:namedview
     id="base"
     pagecolor="#ffffff"
     bordercolor="#666666"
     borderopacity="1.0"
     inkscape:pageopacity="0.0"
     inkscape:pageshadow="2"
     inkscape:zoom="4.0233939"
     inkscape:cx="667.03636"
     inkscape:cy="60.50551"
     inkscape:document-units="mm"
     inkscape:current-layer="layer1"
     showgrid="false"
     inkscape:window-width="1280"
     inkscape:window-height="755"
     inkscape:window-x="0"
     inkscape:window-y="1"
     inkscape:window-maximized="1" />
  <metadata
     id="metadata5">
    <rdf:RDF>
      <cc:Work
         rdf:about="">
        <dc:format>image/svg+xml</dc:format>
        <dc:type
           rdf:resource="http://purl.org/dc/dcmitype/StillImage" />
        <dc:title></dc:title>
      </cc:Work>
    </rdf:RDF>
  </metadata>
  <g
     inkscape:label="Layer 1"
     inkscape:groupmode="layer"
     id="layer1"
     transform="translate(0,-97)">
    <path
       style="fill:#c9d0d9;stroke-width:0.48195741;fill-opacity:0.15566038"
       d="m 100.75785,97.866602 a 99.19873,100.06081 0 0 0 -20.481422,2.275718 c -0.899782,0.47344 -1.827751,0.84392 -2.712873,1.05869 -0.681739,0.16542 -1.912325,0.27662 -3.4367,0.34399 a 99.19873,100.06081 0 0 0 -13.80673,5.14952 c 2.155811,0.1492 4.895335,0.29499 7.551615,0.38373 6.680218,0.22322 8.36379,0.16119 10.401958,-0.38178 3.073962,-0.81905 4.431418,-0.81728 5.668761,0.006 1.16682,0.77686 0.841371,2.4414 -0.713402,3.65039 v 6.4e-4 c -1.121658,0.8722 -4.156568,1.01227 -8.749734,0.40395 -4.759521,-0.63036 -13.594268,-0.85745 -16.991296,-0.43651 -1.955434,0.24229 -3.449347,0.27362 -4.580094,0.0821 a 99.19873,100.06081 0 0 0 -16.819301,11.80792 c -0.171576,0.29002 -0.368859,0.59253 -0.592219,0.90689 -1.348839,1.89831 -2.247164,2.77579 -4.073221,3.27121 a 99.19873,100.06081 0 0 0 -5.589278,6.0512 c 1.071633,-0.0884 2.110841,-0.18214 3.071207,-0.28602 2.953412,-0.31942 4.769575,0.34774 6.3131,2.31937 0.671105,0.85725 2.138046,2.35915 3.259487,3.33702 2.215982,1.93225 2.616054,3.58377 1.11082,4.58595 -1.231,0.81957 -3.387996,0.78455 -4.555336,-0.0743 -0.517686,-0.38084 -1.397978,-1.67937 -1.955822,-2.88552 -1.318622,-2.85111 -3.714133,-4.06721 -7.453238,-3.7833 -0.4424,0.0335 -1.56357,0.10666 -2.514166,0.17005 a 99.19873,100.06081 0 0 0 -4.348157,5.80817 c 6.533144,-0.27793 6.577092,0.087 8.577741,2.80735 2.532984,3.44417 3.590513,3.88681 9.239015,3.86865 3.980035,-0.0127 5.21133,-0.17387 7.038879,-0.92319 1.21824,-0.49949 2.215124,-1.04084 2.215124,-1.20268 0,-0.16183 0.523094,-0.71941 1.162941,-1.23916 3.614767,-2.9363 5.452573,-3.35641 7.557479,-1.72714 2.432119,1.88254 0.64023,4.48148 -3.527258,5.11628 -1.732901,0.26395 -4.714406,1.23097 -8.442228,2.73828 -2.811317,1.13674 -7.240175,1.26272 -11.81312,0.33618 -3.454235,-0.69987 -4.896209,-1.45143 -5.943696,-3.09792 -1.114489,-1.75182 -3.652805,-3.27321 -5.937179,-3.55853 -0.489569,-0.0611 -1.173925,-0.0643 -2.013808,-0.0144 a 99.19873,100.06081 0 0 0 -3.531818,5.96976 c 2.354724,-0.37007 3.537973,-0.16249 4.370306,0.6287 1.202203,1.14277 0.42954,2.01998 -3.069247,3.48296 -1.257491,0.5258 -2.530627,0.87133 -3.765712,1.03459 a 99.19873,100.06081 0 0 0 -2.9037661,7.01868 c 0.03785,0.20502 0.054729,0.4297 0.054729,0.67887 0,0.60427 -0.2048596,0.96677 -0.745976,1.2307 a 99.19873,100.06081 0 0 0 -1.9225965,6.0577 c 1.2459968,0.0364 2.5165172,-0.0494 4.4341562,-0.24366 6.1618994,-0.62433 6.9493054,-0.57709 8.5979354,0.52056 1.814585,1.20814 1.873177,2.72533 0.136814,3.53507 -1.479506,0.68992 -1.138793,0.69084 -8.7282347,-0.0247 -1.5728495,-0.1483 -3.381364,-0.34522 -5.2570091,-0.55964 a 99.19873,100.06081 0 0 0 -1.2417718,5.53846 c 4.4325458,0.49337 9.2719006,0.77073 13.8849136,0.77073 4.918272,0 8.034773,0.18842 9.742632,0.58962 3.475518,0.8164 5.803817,0.73953 8.878083,-0.29449 4.404147,-1.48132 6.451054,-4.35927 7.595918,-10.67754 0.489757,-2.7029 0.779978,-3.22476 2.233365,-4.01654 1.970787,-1.07372 5.316546,-1.60419 6.640158,-1.05283 1.781948,0.7423 1.475529,2.39603 -0.747282,4.03412 -3.252571,2.397 -3.783237,3.13988 -4.784011,6.69815 -1.070518,3.80622 -3.582138,6.75599 -6.526146,7.66432 -0.974589,0.30069 -4.163963,0.73418 -7.08774,0.96293 -6.19693,0.48483 -6.11788,0.48599 -15.357321,-0.22867 -3.976485,-0.30807 -9.0789777,-0.44767 -11.6235306,-0.31925 -1.494571,0.0754 -2.5867148,0.10061 -3.4783946,0.0703 a 99.19873,100.06081 0 0 0 -0.7296876,6.36002 c 1.3398569,-0.92812 3.1248939,-1.13625 6.9554867,-1.12517 2.6078421,0.008 6.8674801,0.2698 9.4663951,0.58246 5.97656,0.71896 9.293808,0.71688 15.948232,-0.0114 8.332278,-0.91149 8.519642,-0.88793 13.094635,1.67502 7.957071,4.4576 8.169245,4.64581 8.169245,7.2441 0,2.29742 -0.01432,2.31597 -3.434095,4.50387 -3.938141,2.51951 -4.539697,3.34007 -4.539697,6.19192 0,1.13227 -0.319004,2.2709 -0.70884,2.53045 -1.075908,0.71634 -4.291974,0.56945 -5.401643,-0.24692 -2.29716,-1.69 -0.664387,-4.8079 4.326005,-8.2598 6.022199,-4.16561 5.626254,-6.98379 -1.297802,-9.23381 -4.995473,-1.62333 -8.329134,-1.97747 -11.975346,-1.27173 -1.69997,0.32901 -3.858338,0.86522 -4.796391,1.19094 -2.119366,0.73581 -4.911948,0.76481 -6.44666,0.0671 -2.04515,-0.92973 -6.894845,-1.83008 -9.858601,-1.83008 -5.6122729,0 -8.4155573,1.64595 -9.7074516,5.69872 -0.046722,0.14658 -0.1043088,0.28414 -0.1661342,0.41762 a 99.19873,100.06081 0 0 0 0.3127232,7.35813 c 1.8799318,-0.032 2.3866803,0.14681 3.232777,0.71014 1.0454212,0.69603 1.2250095,1.16936 0.9837749,2.5943 -0.1623078,0.95871 -0.4461715,1.8441 -0.6306586,1.9669 -0.1816983,0.1209 -1.4804236,0.30507 -2.9011594,0.41435 a 99.19873,100.06081 0 0 0 0.8541253,5.4922 c 3.0402302,-0.47205 5.214329,-0.20798 8.5106324,0.90495 5.011081,1.69188 8.907862,1.64445 17.950315,-0.2163 4.344589,-0.89402 8.68455,-1.15203 9.722438,-0.57855 1.552735,0.85799 7.020485,0.95365 10.681452,0.187 3.043672,-0.63741 4.111709,-0.66641 10.014313,-0.27364 5.728943,0.3812 7.163253,0.63058 10.788298,1.87569 2.299462,0.78979 4.591819,1.73806 5.094134,2.10762 1.130343,0.83158 5.086965,7.29313 5.086965,8.30736 0,0.40819 -0.590775,1.01712 -1.312787,1.35383 -0.72201,0.3367 -2.035521,0.61242 -2.919401,0.61242 -2.339908,0 -3.446471,-1.2986 -3.446471,-4.04586 0,-3.6939 -1.523929,-4.90625 -7.805706,-6.21015 -4.612093,-0.95735 -9.256125,-0.89802 -15.165774,0.19414 -3.700075,0.68391 -3.851006,0.68136 -7.543796,-0.1257 -5.018945,-1.09697 -7.192487,-1.0409 -13.492705,0.34659 -6.691791,1.47371 -10.590228,1.52259 -16.478561,0.20654 -4.6713585,-1.04406 -5.88747,-1.19318 -8.7471313,-0.43716 a 99.19873,100.06081 0 0 0 1.4926023,5.71957 c 2.5659282,-0.26836 5.484068,-0.13815 7.49363,0.42739 3.567237,1.00393 12.404102,0.74915 17.943149,-0.51729 5.436041,-1.24289 7.804572,-1.32096 9.755011,-0.3225 1.091629,0.55881 1.327058,0.95287 1.033942,1.73041 -0.453611,1.20331 -2.403096,1.68132 -8.354271,2.04898 -2.274051,0.14047 -5.445287,0.50817 -7.047352,0.81699 -3.730672,0.71916 -8.617518,0.70798 -12.73956,-0.0286 -2.987417,-0.53388 -5.0282608,-0.68223 -6.8577635,-0.43196 a 99.19873,100.06081 0 0 0 2.1988364,5.91112 c 1.4533411,-0.19201 3.1000641,-0.0344 5.6479121,0.24041 4.032903,0.43501 9.815474,0.23978 13.366316,-0.4515 2.256084,-0.43921 12.995594,-1.28521 15.401619,-1.2131 3.819971,0.11435 6.519437,2.50876 4.798999,4.25695 -1.146763,1.16529 -2.494027,1.16036 -7.543145,-0.0261 l -3.997647,-0.93946 -5.748895,1.00592 c -4.17015,0.72954 -7.451687,1.02464 -11.950587,1.07368 -4.494243,0.0489 -6.771555,0.0803 -8.128854,0.21436 a 99.19873,100.06081 0 0 0 2.87054,5.65573 c 1.44371,-0.33544 3.27423,-0.42001 7.589404,-0.58702 4.113726,-0.15919 8.729595,-0.57613 10.368079,-0.93621 3.233729,-0.71065 7.251036,-0.58235 8.050016,0.2567 0.273068,0.28676 0.496448,0.87499 0.496448,1.30756 0,1.72216 -0.816296,1.95536 -7.784854,2.21904 -8.880647,0.33603 -12.97117,0.66733 -16.416667,1.78904 a 99.19873,100.06081 0 0 0 3.51944,5.30783 c 3.298117,-1.08098 7.754922,-1.56322 15.527361,-1.84507 6.586942,-0.23888 7.133483,-0.19921 10.860616,0.79353 6.028756,1.60582 9.321452,1.68937 15.32279,0.3896 4.064005,-0.88018 5.317327,-1.00857 6.455779,-0.66323 1.732434,0.52555 2.544437,2.79701 1.529739,4.27974 -0.66283,0.96855 -0.809442,0.99241 -4.356627,0.71275 -2.018838,-0.15917 -6.859961,-0.3299 -10.758331,-0.37982 -4.790122,-0.0614 -8.236877,-0.32192 -10.63194,-0.80266 -2.421876,-0.4861 -5.623638,-0.72381 -10.112035,-0.75053 l -6.56784,-0.0391 -4.064101,1.83399 c -0.177483,0.0801 -0.358372,0.15375 -0.538144,0.23258 a 99.19873,100.06081 0 0 0 12.473098,13.35394 c 0.972167,0.0372 2.024782,0.071 3.227564,0.10035 11.37797,0.27745 11.617421,0.37448 12.907001,5.20749 1.079134,4.04431 3.649272,6.66435 7.691038,7.84023 2.467104,0.71778 2.747364,0.72445 5.020511,0.11989 1.324182,-0.35218 3.603579,-1.20982 5.065466,-1.90566 3.790465,-1.80421 4.420649,-1.89468 9.406455,-1.35057 5.542987,0.60493 6.553355,1.22962 6.511159,4.02435 -0.06856,4.52974 -0.871873,7.392 -2.289395,8.15623 v 10e-4 c -0.905327,0.48743 -2.019005,0.71749 -3.10834,0.69516 a 99.19873,100.06081 0 0 0 21.370077,2.42294 99.19873,100.06081 0 0 0 6.29225,-0.22476 c 1.17299,-0.84046 3.10091,-1.7708 3.99309,-1.7708 1.00039,0 1.987,0.40514 2.71548,1.01179 a 99.19873,100.06081 0 0 0 7.91189,-1.38966 c -1.57246,-2.3101 -0.51353,-3.94813 2.67053,-3.94813 2.09365,0 3.08827,0.45494 3.63606,2.44575 a 99.19873,100.06081 0 0 0 7.4148,-2.48485 c -0.53499,-1.58831 -1.38653,-2.58336 -2.90311,-3.82433 -1.03688,-0.84845 -4.97203,-2.03565 -6.74571,-2.03531 -2.7553,5.3e-4 -7.2351,1.36128 -10.33485,3.13896 -3.4256,1.96459 -7.19016,2.55404 -8.92629,1.39813 -1.01278,-0.67431 -1.35023,-3.16949 -0.54076,-3.9983 0.23868,-0.24438 2.2987,-0.51374 4.57749,-0.59808 3.48685,-0.12892 4.65617,-0.3685 7.38288,-1.5154 3.07886,-1.29505 3.50706,-1.36252 8.61096,-1.36883 3.52408,-0.004 5.91094,0.18547 6.94116,0.55183 1.00501,0.3574 2.67172,1.91455 4.6296,4.32601 l 1.70109,2.09459 a 99.19873,100.06081 0 0 0 6.54113,-3.02494 c -0.0468,-0.0582 -0.0808,-0.12381 -0.0808,-0.19806 0,-0.20545 -0.79752,-1.15986 -1.7721,-2.1213 -2.20057,-2.1709 -2.26714,-3.48033 -0.23194,-4.54622 2.2518,-1.17928 3.49474,-0.53847 4.86937,2.51221 0.29008,0.64376 0.71168,1.33867 1.21832,2.03726 a 99.19873,100.06081 0 0 0 6.11829,-3.83867 c -0.43785,-0.66193 -0.75117,-1.30596 -0.75117,-1.69197 0,-1.63733 2.14184,-1.83113 4.20025,-0.79615 a 99.19873,100.06081 0 0 0 5.35083,-4.32599 c -2.96076,-2.33946 -7.53406,-2.98888 -11.39551,-1.55645 -1.09704,0.40695 -2.13132,0.85996 -2.29785,1.00592 -0.32148,0.28174 -2.57995,0.48678 -4.2348,0.38504 -0.54662,-0.0337 -1.16254,-0.41502 -1.36881,-0.84761 -1.11664,-2.34238 2.38043,-3.75189 10.75572,-4.33513 7.63928,-0.53198 8.81593,-0.28065 11.21829,2.39495 0.10867,0.12103 0.19041,0.20984 0.29187,0.32248 a 99.19873,100.06081 0 0 0 10.35441,-11.35901 c -2.85199,0.004 -5.6449,0.69578 -7.72427,1.91478 -0.82997,0.48654 -2.8915,0.69981 -8.56471,0.88605 -7.54826,0.2478 -13.91815,1.00937 -16.62645,1.98775 -2.106,0.76076 -4.96689,2.02529 -5.33063,2.35649 -0.73256,0.667 -6.28926,1.18361 -15.97755,1.48543 -9.96202,0.31036 -10.53063,0.37323 -14.08884,1.54864 -2.03931,0.67365 -4.30049,1.22483 -5.02442,1.22483 -1.77624,0 -2.94572,-1.47934 -2.20079,-2.78388 0.80982,-1.41814 1.88415,-1.88348 5.36712,-2.32327 1.69842,-0.21446 3.39932,-0.51766 3.78004,-0.67432 0.38074,-0.15668 4.82929,-0.31364 9.88531,-0.34856 10.04869,-0.0695 13.4424,-0.51136 19.35822,-2.51937 5.98738,-2.03229 9.15379,-2.68815 15.15861,-3.13961 13.64702,-1.02601 20.47109,-2.32262 25.19181,-4.78663 0.35581,-0.1857 0.69716,-0.34968 1.02873,-0.49839 a 99.19873,100.06081 0 0 0 4.19245,-6.89751 c -0.27137,-0.0101 -0.54903,-0.0175 -0.84175,-0.0175 -1.97153,0 -3.49955,0.33247 -5.78863,1.25872 -1.71043,0.6921 -3.24226,1.36856 -3.40478,1.50367 -0.6125,0.50954 -5.13147,1.92528 -7.97379,2.49788 -1.62433,0.32724 -5.34579,0.78124 -8.26958,1.00854 -11.2224,0.87244 -15.49073,1.63818 -22.28544,3.99829 -1.86154,0.64658 -5.18425,1.42924 -7.38352,1.73952 v -6.4e-4 c -2.19927,0.31027 -6.06418,0.56632 -8.58882,0.57137 -4.32769,0.006 -4.62919,-0.0497 -5.26352,-0.97661 -0.89938,-1.31425 0.11382,-2.78344 2.09329,-3.03538 0.82039,-0.10388 4.11415,-0.1054 7.31902,-0.003 6.47268,0.20752 7.78737,-0.062 12.31544,-2.52524 2.20649,-1.20037 2.77337,-1.31801 6.33265,-1.31801 2.99215,0 4.70986,-0.24703 7.32228,-1.05153 2.6787,-0.82491 4.70847,-1.10625 9.43187,-1.30822 3.31015,-0.14156 6.36678,-0.44319 6.7926,-0.6704 0.42579,-0.2272 1.4388,-0.54086 2.25096,-0.69712 0.81215,-0.15624 3.55404,-1.34464 6.09354,-2.64055 3.96789,-2.02476 4.98016,-2.35959 7.19785,-2.38191 1.09694,-0.0113 2.60878,0.24428 4.41526,0.72448 a 99.19873,100.06081 0 0 0 2.47637,-5.17102 c -1.74517,-0.50346 -3.39336,-0.93175 -4.43284,-1.13035 -3.1547,-0.60276 -3.68099,-0.60677 -6.2245,-0.0443 -1.52813,0.33792 -3.5786,1.0993 -4.55664,1.69195 -2.8106,1.70309 -8.13258,4.02696 -9.22207,4.02696 -0.54653,0 -1.1577,0.17723 -1.3584,0.39352 -0.62928,0.67787 -4.20232,0.42855 -5.79189,-0.40393 -0.83677,-0.43824 -1.70121,-1.1901 -1.92064,-1.67113 -0.75537,-1.65655 -3.0805,-3.25714 -6.2447,-4.29798 -18.73955,-6.16362 -22.06736,-6.84416 -30.19734,-6.16977 -3.0036,0.24916 -6.57641,0.78433 -7.93926,1.189 -1.36285,0.40467 -3.53707,0.73554 -4.83223,0.73554 -1.92509,0 -2.57813,-0.20836 -3.57677,-1.14208 -0.67185,-0.62819 -1.22157,-1.51038 -1.22157,-1.96039 0,-0.45 -0.66416,-2.34475 -1.47632,-4.21068 -1.69367,-3.89124 -1.82902,-5.52161 -0.61763,-7.45194 1.02893,-1.63956 2.26386,-2.0345 4.20157,-1.34406 1.28925,0.45937 1.43657,0.76679 1.43657,2.99563 0,1.36625 -0.32266,3.28822 -0.7173,4.27063 -0.61298,1.52591 -0.5783,1.9423 0.2404,2.85685 1.66661,1.8618 3.44839,2.29687 7.07732,1.72845 1.73002,-0.27097 4.7405,-0.68048 6.68967,-0.9095 1.9492,-0.22901 3.8527,-0.58463 4.23023,-0.79028 1.58553,-0.86366 5.27533,-0.51936 8.3041,0.77464 2.95376,1.26196 8.60012,2.9183 12.56888,3.68688 4.81141,0.93173 9.19208,2.76375 12.81058,5.35734 3.54913,2.54381 3.75644,2.62753 6.5281,2.62753 2.57438,0 3.27687,-0.21721 6.97177,-2.15389 2.25975,-1.18443 4.25762,-2.29106 4.44002,-2.45943 0.95985,-0.88547 4.52111,-2.26842 5.8375,-2.26724 0.83026,8.1e-4 2.30704,0.3251 3.28164,0.72056 2.78509,1.13005 5.03923,1.96385 6.95027,2.5285 a 99.19873,100.06081 0 0 0 1.98123,-5.4733 c -2.03085,-0.4978 -5.12962,-1.59916 -5.68309,-2.11285 -0.775,-0.71934 -4.67753,-1.69066 -6.79261,-1.69066 -2.09676,0 -5.98936,0.96286 -6.79261,1.68024 -0.16243,0.14507 -1.95443,1.27113 -3.982,2.50178 -4.64933,2.82194 -5.71047,2.8598 -9.78629,0.34921 -4.10987,-2.53158 -5.25717,-2.96798 -10.97985,-4.17159 -6.02796,-1.26783 -12.90851,-3.3843 -14.65954,-4.50973 -1.18553,-0.76201 -1.30099,-1.19207 -1.21702,-4.53775 0.0869,-3.46253 -0.009,-3.78501 -1.51215,-5.09739 -1.16315,-1.0153 -2.44288,-1.5665 -4.64915,-2.00274 -3.99396,-0.78966 -5.72868,-0.75658 -11.39421,0.21501 -7.35744,1.26175 -7.84966,1.28804 -10.658,0.57398 -2.81381,-0.71549 -3.66989,-1.72392 -2.99107,-3.52466 0.46815,-1.24181 1.56136,-1.35693 6.53462,-0.68864 3.25024,0.43683 4.93889,0.46026 8.0878,0.11397 5.75244,-0.6325 12.06452,-0.5541 14.38332,0.17851 2.02599,0.64009 4.52851,2.2994 6.42386,4.25954 0.86598,0.8957 1.02554,1.57155 0.74597,3.15525 -0.47243,2.67628 0.39236,4.57049 2.73308,5.98865 2.17533,1.31794 6.98435,2.49723 10.1824,2.49723 2.73346,0 4.12351,0.49512 7.24214,2.57736 4.6894,3.13101 9.58961,2.62789 15.05698,-1.54472 3.94113,-3.00782 5.31424,-3.24312 9.81234,-1.68545 1.97459,0.6838 4.30047,1.6625 5.16905,2.17538 1.84976,1.09222 4.16687,1.6003 6.03947,1.38184 a 99.19873,100.06081 0 0 0 2.38973,-9.9257 c -0.47055,0.32341 -0.92567,0.70405 -1.37012,1.15121 -2.39325,2.40778 -3.27901,2.36604 -10.3785,-0.48602 -1.33565,-0.53657 -3.46814,-0.89886 -6.02449,-1.02417 -4.76078,-0.23337 -6.11357,0.23196 -10.01691,3.44778 h -6.6e-4 c -2.55223,2.1027 -4.60961,2.7948 -6.15151,2.06853 -2.31719,-1.09141 -0.51784,-4.5168 3.04383,-5.79385 1.18176,-0.42373 3.49686,-1.44041 5.1443,-2.25877 3.32959,-1.65396 6.44404,-1.9545 9.44554,-0.91211 2.95608,1.02662 8.61264,1.89572 10.80003,1.65939 1.15997,-0.12532 3.53172,-0.85664 5.27004,-1.62486 0.29504,-0.13039 0.57857,-0.2472 0.85738,-0.35833 a 99.19873,100.06081 0 0 0 0.7753,-6.4193 c -1.17435,0.12431 -2.07416,0.35214 -3.03211,0.73945 -1.17537,0.47525 -2.29167,1.01228 -2.4803,1.19357 -0.83677,0.80392 -4.76301,0.76671 -8.93737,-0.0847 -7.19103,-1.46666 -7.89614,-1.75078 -9.41231,-3.79698 -0.76431,-1.0315 -2.51926,-2.58712 -3.89992,-3.45689 -2.09535,-1.32001 -2.51026,-1.82833 -2.51026,-3.07447 0,-1.21082 0.27867,-1.57753 1.47631,-1.94084 2.36648,-0.71789 3.99593,0.0668 6.03361,2.90703 3.00021,4.18176 6.91709,6.20951 11.99554,6.20951 2.25149,0 4.10183,-0.42952 10.48991,-2.43468 0.15662,-0.0492 0.31341,-0.0933 0.46974,-0.13617 a 99.19873,100.06081 0 0 0 0.21109,-4.25825 99.19873,100.06081 0 0 0 -0.0703,-1.99621 c -0.75868,0.33956 -1.76565,0.68441 -3.22627,1.146 -7.95985,2.51553 -10.20865,2.24085 -13.20343,-1.61378 -0.81214,-1.04536 -1.78904,-2.12451 -2.17018,-2.39755 -0.38111,-0.27304 -1.17796,-0.89756 -1.77144,-1.38836 -2.27721,-1.88324 -4.38652,-2.65164 -7.28123,-2.65164 -4.29205,0 -7.97317,2.17805 -10.10292,5.97758 -0.69102,1.23279 -1.72403,2.52336 -2.29592,2.86793 v 6.6e-4 c -1.50161,0.90477 -4.62585,1.05848 -7.68386,0.37787 -1.46191,-0.32536 -4.06942,-0.77523 -5.79515,-0.9994 -1.72573,-0.22422 -3.59761,-0.70602 -4.15923,-1.07109 -0.56164,-0.36506 -2.52926,-1.54199 -4.37291,-2.61515 -3.31303,-1.92844 -3.36719,-1.99458 -4.62569,-5.67266 -0.98786,-2.88739 -1.1674,-4.21257 -0.80006,-5.91373 0.26039,-1.20591 0.49253,-3.40785 0.51535,-4.89283 0.0408,-2.65687 0.005,-2.72057 -2.23272,-4.00806 -3.96821,-2.283 -13.51827,-3.18884 -20.46643,-1.94084 -3.82457,0.68695 -6.19169,0.27071 -6.74049,-1.18508 -0.50004,-1.32649 0.15102,-2.13438 1.93302,-2.39886 0.85756,-0.12726 2.48925,-0.38965 3.62629,-0.58375 2.65833,-0.45423 7.27897,-0.45937 8.0031,-0.009 0.97021,0.60328 8.17747,1.6177 11.49454,1.6177 3.85949,0 7.29108,1.37083 8.22592,3.2862 0.33183,0.67989 0.82432,4.59848 1.09453,8.70803 0.40984,6.23289 0.67475,7.66721 1.59489,8.65136 1.59102,1.70161 5.13722,4.12926 6.03231,4.12926 0.42136,0 0.76617,0.16471 0.76617,0.36549 0,0.20078 1.46152,0.58276 3.24776,0.84891 4.52741,0.67458 7.43258,0.0645 9.72504,-2.04247 0.94344,-0.86713 1.89511,-2.14167 2.11545,-2.83211 0.77351,-2.42454 3.60102,-3.62267 10.00128,-4.23869 5.69139,-0.5478 6.91682,-0.24265 9.23315,2.29917 1.1019,1.20916 3.48305,3.229 5.29154,4.48887 3.09585,2.15678 3.44999,2.29071 6.06422,2.29071 2.40082,0 3.05068,-0.18778 4.799,-1.38642 0.83407,-0.57181 2.00637,-1.59178 2.95523,-2.54869 a 99.19873,100.06081 0 0 0 -4.50125,-22.97278 c -2.30312,-0.46033 -4.68517,-0.0758 -8.35818,1.1004 -4.21412,1.34951 -4.65576,1.40926 -8.77255,1.18444 -3.33502,-0.18211 -5.51169,-0.0454 -9.43642,0.59221 -6.29941,1.02334 -7.97236,1.03342 -10.36547,0.0619 -2.28425,-0.92733 -3.27302,-2.0641 -3.02755,-3.48035 0.24385,-1.40679 2.44923,-1.58535 6.14436,-0.4971 3.35573,0.98831 6.48287,1.03507 9.15823,0.13616 1.54421,-0.51884 3.58568,-0.67855 8.80316,-0.68863 6.31544,-0.0113 7.04182,-0.0942 10.3368,-1.17663 1.49348,-0.49063 2.96199,-0.82295 4.2791,-0.99224 a 99.19873,100.06081 0 0 0 -2.17473,-5.46745 c -1.07516,0.28587 -2.3326,0.64718 -3.87646,1.11538 -4.43863,1.34608 -6.76425,1.61118 -8.90481,1.0157 -1.59476,-0.44364 -2.01908,-0.81852 -2.31805,-2.04768 -0.46085,-1.89479 -1.76722,-3.49576 -4.23611,-5.19121 -2.47872,-1.70221 -2.88435,-2.6064 -1.70563,-3.80415 2.25528,-2.29164 7.55717,0.0472 8.35166,3.68427 0.48057,2.2001 1.62316,3.81739 2.93308,4.15205 2.17772,0.55639 4.00715,0.2173 5.85248,-1.08541 0.76765,-0.54191 1.54665,-0.9954 2.33697,-1.37011 a 99.19873,100.06081 0 0 0 -3.02886,-5.83751 c -0.95061,-0.2106 -1.8977,-0.8729 -3.86604,-2.27115 -3.43677,-2.4414 -3.82391,-4.62307 -0.86129,-4.85047 0.13013,-0.0101 0.26175,-0.0132 0.39481,-0.0113 a 99.19873,100.06081 0 0 0 -4.50647,-6.32093 c -1.14529,0.14397 -2.10254,0.51797 -3.01453,1.12515 -1.70356,1.13422 -2.48875,2.62198 -2.48875,4.71366 0,0.57858 -0.31902,1.26432 -0.70884,1.52387 -1.12313,0.74777 -3.89363,0.57285 -4.58661,-0.28927 -0.89965,-1.11918 -0.7556,-2.33943 0.61958,-5.25635 1.41908,-3.01007 3.02743,-3.92885 7.95946,-4.36575 a 99.19873,100.06081 0 0 0 -4.35792,-4.96904 c -6.11037,0.88246 -9.56004,2.86936 -10.91666,6.23948 -0.49392,1.22698 -1.06529,2.88916 -1.26978,3.69404 -0.21668,0.85258 -0.91029,1.71438 -1.66134,2.06463 -1.59786,0.7451 -1.6366,0.74486 -3.32464,-0.0424 -1.19357,-0.55658 -1.3404,-0.88313 -1.08215,-2.40863 0.16429,-0.97044 0.56528,-1.87509 0.89126,-2.01054 0.326,-0.13548 1.28849,-1.76543 2.13824,-3.62238 0.91085,-1.99045 2.08804,-3.70663 2.86794,-4.18072 1.77747,-1.08048 5.9156,-2.23853 9.29178,-2.61385 a 99.19873,100.06081 0 0 0 -5.36255,-4.80682 c -3.04246,0.51825 -5.58673,1.30481 -7.14312,2.24054 -1.07859,0.64849 -2.57582,1.34625 -3.32789,1.55059 -2.1419,0.58195 -2.95865,0.44998 -4.04652,-0.65542 -0.96976,-0.9854 -0.95599,-1.0973 0.34531,-2.73047 1.34361,-1.68628 1.40912,-1.71026 6.75677,-2.53045 1.17366,-0.18001 2.48049,-0.42441 3.75529,-0.68148 a 99.19873,100.06081 0 0 0 -6.81671,-4.64524 c -3.80046,0.51198 -6.62611,1.32786 -8.2572,2.41384 -1.93039,1.28523 -4.25044,4.82814 -4.25044,6.4903 0,1.53307 -2.29063,3.40273 -5.45442,4.4524 -4.16108,1.38057 -8.02501,1.21337 -8.94779,-0.38765 -0.79697,-1.38282 2.85411,-3.3021 6.31245,-3.31811 0.26128,-0.001 1.27595,-0.50015 2.25422,-1.10887 1.3099,-0.81507 2.07875,-1.87744 2.91745,-4.03088 1.55707,-3.99782 2.04231,-4.50251 6.05315,-6.28573 1.87747,-0.83475 2.8162,-1.22208 4.07386,-1.40139 a 99.19873,100.06081 0 0 0 -7.42456,-3.61782 c -0.34417,0.36945 -0.76154,0.65456 -1.26979,0.87627 -2.10254,0.91723 -4.32682,0.79717 -5.0596,-0.27363 -0.37439,-0.54707 -0.31533,-1.29961 0.29905,-2.91027 a 99.19873,100.06081 0 0 0 -7.42133,-2.35585 c -0.15309,0.53601 -0.55493,1.34861 -1.02546,2.03269 -0.8695,1.26412 -2.01397,1.94011 -5.82643,3.44126 -4.03702,1.58957 -5.17245,1.85996 -7.61742,1.81445 -4.04445,-0.0754 -5.67087,-0.31907 -6.86036,-1.02677 -1.35272,-0.80485 -1.3051,-1.49186 0.17069,-2.47442 1.06721,-0.71056 1.68746,-0.77437 5.46354,-0.56291 3.55397,0.19902 4.60198,0.11283 6.32678,-0.52251 1.94297,-0.71567 3.3926,-2.07451 4.31037,-4.00481 a 99.19873,100.06081 0 0 0 -8.94324,-1.483481 c -8.5e-4,6.81e-4 -0.002,0.0013 -0.003,0.002 -1.30467,1.040026 -3.92347,0.870163 -5.36255,-0.347904 -0.0512,-0.04334 -0.0989,-0.091 -0.14724,-0.137468 a 99.19873,100.06081 0 0 0 -6.3991,-0.323147 z m -5.025073,0.716657 c 2.080558,-0.03511 3.84975,0.677183 3.84975,2.229451 4e-6,1.26356 -1.549142,2.41183 -4.309716,3.19435 -2.382264,0.67528 -3.243241,0.58815 -4.86936,-0.4945 -1.25105,-0.83295 -1.361869,-1.11207 -0.821549,-2.06463 1.035162,-1.824977 3.792908,-2.824884 6.150875,-2.864671 z m 0.0215,10.730971 c 0.494247,0.0156 0.990918,0.10477 1.477618,0.2782 1.547929,0.55155 1.501856,2.11947 -0.106192,3.62302 -0.71092,0.66474 -1.396156,2.03066 -1.548632,3.08684 -0.263027,1.8225 -0.177372,1.95113 2.245093,3.39044 5.836376,3.46754 5.894836,3.51918 5.894836,5.15994 0,1.06085 -0.29941,1.63792 -0.93426,1.80011 -1.67223,0.42724 -2.35956,0.25969 -4.913015,-1.19551 -3.115952,-1.77577 -5.164921,-3.88978 -5.706548,-5.88832 -0.227462,-0.83931 -0.616457,-1.70305 -0.865201,-1.91935 -0.248733,-0.21629 -0.724287,-1.05676 -1.056744,-1.86786 -1.272231,-3.1039 2.053342,-6.57717 5.513049,-6.46751 z m 31.951213,1.48218 c 1.41053,0.0352 2.51183,0.49217 2.8386,1.35904 0.49956,1.32517 -0.51871,3.74161 -2.03205,4.8231 -1.88164,1.34472 -4.35238,1.1516 -5.84531,-0.4567 -1.7316,-1.86541 -1.60637,-3.5333 0.34269,-4.55403 1.56513,-0.81969 3.28551,-1.2066 4.69607,-1.17141 z m -19.15105,2.922 c 2.08937,0.0405 4.4355,0.73671 4.92409,1.905 0.48536,1.16061 1.3326,2.49165 2.91744,4.5827 0.73771,0.97332 1.51718,2.26307 1.73171,2.86599 0.52731,1.48244 -0.60724,4.10708 -1.98775,4.59898 -1.53157,0.5457 -3.39311,0.50319 -3.97093,-0.0913 -0.26289,-0.27037 -0.47756,-2.00806 -0.47756,-3.86148 0,-3.66127 -0.053,-3.73426 -3.98787,-5.47918 -2.43472,-1.07973 -3.09263,-1.93584 -2.56368,-3.33896 0.31967,-0.848 1.78948,-1.21331 3.41455,-1.18185 z m -46.371656,2.04704 c 4.240027,-0.0129 8.958211,0.12494 12.592323,0.41761 5.829906,0.4696 6.299031,0.57457 7.8259,1.75451 1.212338,0.93687 1.624207,1.67273 1.624207,2.89986 0,2.44154 -1.737832,2.64031 -5.710457,0.65346 -3.702404,-1.85171 -7.534456,-2.46466 -15.408787,-2.46466 -6.678078,0 -7.43794,0.0768 -9.543271,0.96164 -2.639347,1.1093 -4.271616,2.51423 -5.95021,5.12149 -1.968056,3.05685 -1.442033,4.66614 2.476374,7.57377 2.117021,1.57091 2.763859,2.95982 1.78904,3.84323 -1.179969,1.06931 -2.207419,1.31212 -3.540291,0.83719 -1.406633,-0.50121 -7.821337,-7.3401 -7.821337,-8.33863 0,-0.3225 0.679513,-1.47943 1.510192,-2.57086 0.83069,-1.09142 2.044202,-3.13539 2.696589,-4.54165 1.405112,-3.02885 4.116419,-5.01291 7.734688,-5.66159 1.723031,-0.30893 5.485016,-0.47256 9.72504,-0.48537 z m 0.234544,8.37316 c 5.050689,0 12.626927,1.76515 14.267999,3.32398 0.238677,0.22674 0.433903,0.94276 0.433903,1.59164 0,0.64888 -0.195233,1.36999 -0.433903,1.60205 -1.309469,1.27324 -3.357313,0.81661 -6.659705,-1.48413 -2.244135,-1.56346 -5.144653,-1.82977 -8.23765,-0.7564 -4.630923,1.60707 -7.126648,0.86089 -6.228404,-1.862 0.44762,-1.35689 3.453203,-2.41514 6.85776,-2.41514 z m 25.075845,2.82493 c 0.676297,0.0276 1.522007,0.43793 3.229518,1.34016 4.199385,2.21888 5.106947,3.8394 2.95328,5.27329 -1.529092,1.01805 -2.828006,0.99315 -5.137132,-0.0983 -3.357943,-1.5873 -4.733105,-4.67689 -2.64251,-5.93654 0.647496,-0.39015 1.070832,-0.59996 1.596844,-0.57854 z m 58.395197,1.67568 c 1.90946,0.001 3.05781,1.04874 2.43403,2.9396 -0.54871,1.66335 -2.22559,2.45586 -6.3613,3.00605 -2.02962,0.27001 -5.68393,0.85704 -8.12038,1.30497 -5.14155,0.94523 -7.66933,0.99604 -10.85933,0.2176 -2.56358,-0.62558 -3.86008,-1.54128 -3.88819,-2.74675 -0.0405,-1.7398 3.33557,-2.32376 6.69359,-1.15773 2.68008,0.93062 8.18497,0.75733 11.47043,-0.36094 1.53229,-0.52153 3.3173,-1.27512 3.96701,-1.67436 1.69521,-1.04168 3.35767,-1.5296 4.66414,-1.52844 z m -39.90805,3.31617 c 1.22755,-0.0155 2.57746,0.35158 3.75855,1.10495 2.06101,1.31467 2.15076,2.82303 0.23845,4.01915 -0.78024,0.48802 -2.4586,0.98042 -3.72987,1.09388 -2.00585,0.17912 -2.44335,0.073 -3.30706,-0.8046 -1.27187,-1.29224 -1.26519,-2.7765 0.0183,-4.22308 0.68932,-0.7769 1.79414,-1.17484 3.02168,-1.1903 z m -42.372039,2.01315 c 1.274297,0.003 2.682985,0.30329 3.464714,0.86195 1.955502,1.39748 1.458248,5.30509 -0.803308,6.31049 -0.35745,0.15892 -1.197714,0.29136 -1.866568,0.29514 -3.972263,0.0197 -6.077913,-4.57867 -3.166321,-6.91444 0.470473,-0.37743 1.380362,-0.55531 2.371483,-0.55314 z m 15.647238,1.59946 c 0.792215,-0.0246 1.557351,0.20639 2.206655,0.68408 1.226176,0.90209 1.358037,1.69866 0.749232,4.52015 -0.32647,1.51304 -0.245186,3.09946 0.241059,4.71887 0.949404,3.16192 0.875805,6.31909 -0.218907,9.40384 -0.482941,1.36082 -1.003526,3.70244 -1.156425,5.20359 -0.205761,2.02015 -0.552602,2.86331 -1.335588,3.24451 -4.684624,2.28066 -6.907384,-3.18422 -3.260791,-8.0168 1.522461,-2.01762 1.8379,-2.8986 1.8379,-5.13191 0,-1.48293 -0.231586,-2.86444 -0.514691,-3.06991 -0.283106,-0.20547 -0.967512,-1.3554 -1.520616,-2.55586 -0.917412,-1.99116 -0.928474,-2.45305 -0.131604,-5.26286 0.480416,-1.69401 1.230848,-3.23081 1.667857,-3.41521 0.47558,-0.20068 0.960593,-0.30773 1.435919,-0.32249 z m 14.107078,3.62563 c 0.248634,0.003 0.514364,0.0275 0.80787,0.0749 3.207027,0.51891 4.360116,2.68462 3.04384,5.71566 -0.328121,0.75559 -0.848046,3.67396 -1.155125,6.48575 -0.307066,2.81181 -0.844666,5.65479 -1.194863,6.31767 -0.542684,1.02723 -0.376315,1.63176 1.127108,4.09146 1.32195,2.16281 1.617394,3.06768 1.179878,3.61196 -1.250065,1.55513 -7.213413,0.19875 -7.971838,-1.81315 -0.36589,-0.97059 0.430959,-5.75316 1.673722,-10.04493 0.96167,-3.32099 1.194683,-6.53356 0.532935,-7.35681 -0.328702,-0.40891 -0.780981,-1.82024 -1.004624,-3.13637 -0.36409,-2.14255 -0.270357,-2.48391 0.894518,-3.25948 0.72821,-0.48486 1.320679,-0.69288 2.066579,-0.68669 z m 51.427343,0.78376 c 1.94906,-0.0113 2.63598,0.5364 2.63598,1.68284 0,0.87298 -2.65528,2.53437 -4.05041,2.53437 -0.34098,0 -3.08024,0.53102 -6.08703,1.17988 -3.00678,0.64888 -5.74378,1.1738 -6.08181,1.1675 -1.38816,-0.0282 -2.68161,-1.1204 -2.68161,-2.26399 0,-1.48711 1.34605,-2.4425 3.44062,-2.4425 0.87122,0 3.4433,-0.37558 5.71632,-0.83393 3.31241,-0.66796 5.592,-1.0151 7.10794,-1.02417 z m -26.53067,0.57268 c 1.01002,-0.0144 1.82704,0.20592 2.335,0.66845 1.52879,1.39201 -0.0271,2.60057 -4.84851,3.76635 -2.72342,0.65852 -5.42752,2.60954 -6.18801,4.46413 -0.64995,1.58507 -0.38476,8.07962 0.40654,9.94851 0.24167,0.57082 -0.0448,1.11751 -0.87628,1.67111 -2.13874,1.42395 -4.88204,0.83783 -5.58863,-1.19421 -0.19774,-0.56872 0.15943,-4.0899 0.79354,-7.8246 1.2432,-7.32186 1.79445,-8.26118 5.18209,-8.82726 0.83122,-0.13891 2.71269,-0.8032 4.18072,-1.47567 1.68763,-0.77307 3.30495,-1.17839 4.60354,-1.19681 z m 40.39798,5.07198 c 1.56446,-0.0218 2.80491,0.2815 3.55592,0.93231 2.43783,2.11248 0.72025,3.53898 -4.26084,3.53898 -4.16233,0 -6.65958,0.56969 -9.73939,2.22033 -1.3541,0.72575 -2.74976,1.31931 -3.10116,1.31931 -0.35141,0 -0.63913,0.16314 -0.63913,0.36223 0,0.19911 -0.86352,0.4858 -1.91934,0.63718 -1.0558,0.15138 -2.58415,0.49773 -3.39631,0.77008 -3.03939,1.01918 -5.15285,1.09182 -6.45903,0.22216 -2.59341,-1.72667 -1.20033,-3.24807 3.80088,-4.15139 5.8576,-1.05802 10.52787,-2.23876 12.40405,-3.13571 3.63985,-1.74012 7.14695,-2.6792 9.75435,-2.71548 z m -92.416229,0.99225 c 0.132732,3.6e-4 0.267538,0.005 0.404586,0.0137 2.540609,0.16436 3.546287,1.45981 3.187171,4.1058 -0.150528,1.10907 -0.626157,2.39194 -1.056744,2.85099 -1.185854,1.26425 -4.236228,1.1307 -5.713062,-0.25018 -2.931229,-2.74076 -0.936622,-6.7315 3.178049,-6.72029 z m 55.813929,2.70895 c 1.03637,-0.0101 1.91707,0.2504 2.34738,0.78572 0.52443,0.65241 0.29082,1.26566 -1.25676,3.29402 l -1.9024,2.49267 1.13103,1.28803 c 0.63677,0.72561 2.4016,1.74459 4.04129,2.33305 3.71239,1.3323 4.60255,2.21042 3.03015,2.9878 -2.10201,1.03925 -7.89662,0.42979 -10.12962,-1.06521 -1.23805,-0.82889 -1.42214,-1.41429 -1.77992,-5.67006 l -0.39872,-4.74558 1.63854,-0.85803 c 1.05061,-0.55025 2.24267,-0.83198 3.27903,-0.84241 z m -68.995867,4.40289 c 0.709874,0.0194 1.232534,0.26603 1.769494,0.70753 1.211869,0.99642 1.029701,2.41208 -0.435858,3.38785 -1.006788,0.67031 -5.272638,1.71021 -7.014775,1.71021 -0.692688,0 -2.507837,0.44238 -4.033476,0.98311 -3.303501,1.17086 -5.829538,1.226 -9.029886,0.19676 -1.355555,-0.43595 -3.645216,-0.76578 -5.371672,-0.77334 -3.523062,-0.0156 -5.313257,0.82016 -7.238241,3.37936 -0.671375,0.89256 -1.652239,1.73304 -2.179943,1.86787 -1.173411,0.2998 -1.402898,0.28794 -3.077717,-0.16027 -1.066652,-0.28545 -1.329075,-0.6649 -1.329075,-1.92325 0,-1.59071 1.017115,-2.57388 4.099283,-3.9631 0.719803,-0.32444 2.113041,-1.03267 3.096611,-1.5734 2.281726,-1.25441 3.80995,-1.51402 6.389327,-1.08541 1.137022,0.18894 3.130792,0.52457 4.430247,0.74598 1.299457,0.22143 4.090076,0.33782 6.20169,0.25864 3.334441,-0.12494 4.344221,-0.36357 7.678662,-1.8164 3.158535,-1.37619 4.862208,-1.97454 6.045329,-1.94214 z m 106.806717,1.99687 c 1.24206,4.3e-4 2.43674,0.0777 3.37741,0.24627 3.04954,0.54672 5.62458,2.58442 5.34171,4.22697 -0.15723,0.91289 -0.49893,1.12101 -1.96234,1.19552 -0.97459,0.0497 -2.79959,-0.15745 -4.05563,-0.46062 -1.25605,-0.30316 -3.64791,-0.67261 -5.31564,-0.82089 -4.60987,-0.40991 -6.48501,-1.99219 -4.06606,-3.43084 0.98677,-0.58687 3.94801,-0.95736 6.68055,-0.95641 z m -96.290091,3.80872 c 1.962233,0 2.812935,0.9294 4.034129,4.40744 0.675056,1.92262 0.609184,2.19581 -1.172714,4.88369 -0.591545,0.89231 -1.258681,2.39671 -1.482829,3.34288 -0.401994,1.69685 -2.137505,3.92283 -4.050418,5.19642 -0.964652,0.64226 -4.457028,0.90358 -5.227038,0.3909 -0.748328,-0.49823 -0.390728,-2.71271 0.594824,-3.68167 0.543943,-0.53478 1.989311,-1.70814 3.21193,-2.60797 3.008414,-2.21413 3.368025,-3.75314 1.677628,-7.18612 -1.273352,-2.58601 -1.291279,-2.7765 -0.347901,-3.73509 0.700917,-0.71224 1.515808,-1.01048 2.762389,-1.01048 z m 79.605651,0.99615 c 1.6592,0.0493 3.028,0.71629 3.90774,1.9506 1.304,1.82958 1.17127,2.45733 -0.79875,3.76897 -1.86801,1.24371 -2.58339,1.33413 -4.61917,0.5844 -5.06065,-1.86368 -5.49489,-4.70895 -0.91342,-5.98344 0.85518,-0.23789 1.66942,-0.34294 2.4236,-0.32053 z m -112.075449,5.2961 c 1.931159,0 4.104827,1.20623 4.075175,2.26137 -0.06929,2.4675 -1.200683,6.16044 -2.087426,6.81281 -0.994426,0.7316 -3.780449,1.03232 -4.587262,0.49514 -0.216581,-0.14419 -0.395652,-1.16188 -0.397417,-2.26138 -0.0018,-1.09948 -0.281303,-2.66659 -0.621537,-3.48229 -0.534628,-1.28178 -0.448781,-1.64189 0.633916,-2.65425 0.902287,-0.84365 1.737293,-1.1714 2.984551,-1.1714 z m 49.814209,3.01777 c 2.998408,-0.0295 4.143815,0.1695 6.849291,1.189 1.786738,0.6733 4.098862,1.34126 5.138435,1.48479 2.314876,0.31958 6.674684,3.04839 6.674684,4.17746 4e-6,0.45352 -0.44467,1.32546 -0.988335,1.93822 -1.937497,2.18376 -4.485336,1.64646 -6.711822,-1.41572 -2.861369,-3.93538 -5.357224,-4.48991 -12.013783,-2.66988 -6.07397,1.66078 -8.478103,0.60738 -5.973668,-2.6171 1.222775,-1.57432 2.807477,-2.04529 7.025198,-2.08677 z m 67.24918,3.0054 c 0.56241,-0.0234 1.0582,0.13809 1.84116,0.51795 2.0612,1.00002 2.52479,2.82946 1.1916,4.69997 -0.5825,0.81729 -1.05869,2.05907 -1.05869,2.75978 0,1.25753 1.87364,4.08886 2.7057,4.08886 0.23575,0 0.86517,0.61298 1.39878,1.36165 0.9297,1.30441 0.91654,1.41074 -0.30816,2.55586 -1.94429,1.81796 -4.38036,1.52952 -6.59585,-0.78115 -0.72778,-0.75904 -1.05482,-2.58666 -1.38771,-7.75489 l -0.43586,-6.762 1.48805,-0.45149 c 0.46173,-0.14007 0.82353,-0.22046 1.16098,-0.23454 z m 43.56691,1.35318 c 2.71464,-0.0803 3.908,1.92521 1.72584,3.77222 -1.98609,1.68107 -2.08433,3.39538 -0.32184,5.5997 1.80985,2.26355 1.95425,3.7226 0.45866,4.62375 -1.46739,0.88416 -2.61892,0.81729 -4.06345,-0.23455 -2.32998,-1.69653 -3.28755,-3.44566 -2.8334,-5.17622 0.23198,-0.88403 0.5945,-2.84583 0.80591,-4.35987 0.44738,-3.20451 0.68151,-3.52422 2.97673,-4.05695 0.44449,-0.10313 0.86375,-0.15662 1.25155,-0.16808 z m -15.37752,2.07831 c 2.83591,0.0796 4.15645,1.21159 2.99303,3.08162 -0.92901,1.4933 -1.8205,1.70309 -5.9209,1.39423 -2.78358,-0.20967 -3.97249,-0.0812 -7.18546,0.77464 -2.11752,0.56402 -4.26191,1.02547 -4.76513,1.02547 -1.92755,0 -3.21574,-2.15445 -2.1871,-3.65756 0.80114,-1.17068 2.02236,-1.44204 6.51702,-1.4496 1.82713,-0.003 4.45181,-0.27104 5.83294,-0.59548 1.82422,-0.42851 3.42656,-0.60947 4.7156,-0.57332 z m -57.50589,0.77334 c 1.1524,-0.008 2.13761,0.0343 2.76694,0.13941 3.4979,0.58451 4.72919,3.39177 1.86853,4.25956 -1.23126,0.37351 -2.03431,0.30352 -4.58857,-0.40133 -1.70305,-0.46997 -3.57433,-0.85477 -4.15791,-0.85477 -2.79347,0 -4.64975,1.63127 -5.3593,4.70909 -0.22309,0.96767 -0.83297,2.07331 -1.35513,2.45748 -2.18364,1.60649 -4.40875,0.48936 -4.40875,-2.21382 0,-2.22995 2.95813,-6.08688 5.40686,-7.04996 1.40457,-0.55239 6.37012,-1.02256 9.82733,-1.04566 z m -35.502558,2.77411 c 0.820959,-0.004 1.483145,0.1446 1.93823,0.44759 1.219684,0.81206 0.780241,2.17285 -1.108211,3.43018 -1.446812,0.96327 -2.32013,1.21119 -4.282353,1.21246 -1.355688,10e-4 -4.614379,0.11409 -7.240847,0.25018 -4.480242,0.23225 -4.853961,0.19097 -6.053801,-0.66649 -1.58544,-1.13302 -1.598993,-1.56844 -0.08144,-2.65295 1.541651,-1.10172 3.448663,-1.40891 5.50914,-0.88735 2.465574,0.62414 4.893344,0.50347 7.468876,-0.37136 1.476834,-0.50161 2.794885,-0.75755 3.850405,-0.76226 z m -29.579714,3.90317 c 0.680133,0.0202 1.390996,0.14428 2.077657,0.38896 0.593153,0.21135 1.754725,1.15294 2.58127,2.09198 3.322031,3.77412 7.661753,5.35849 13.244481,4.83549 8.192419,-0.76742 8.571647,-0.76815 9.396682,-0.0169 1.057658,0.96302 1.002165,2.55552 -0.127044,3.6289 h -6.51e-4 c -1.001999,0.95245 -2.703523,1.06218 -6.167816,0.39676 -1.137022,-0.21839 -4.41154,-0.51031 -7.276678,-0.64825 l -5.209449,-0.25083 -2.616452,-1.84441 c -1.439041,-1.01463 -4.21185,-2.66209 -6.161298,-3.66081 -2.568027,-1.31565 -3.544197,-2.07275 -3.544197,-2.74807 0,-1.3588 1.763099,-2.23334 3.803495,-2.17278 z m 39.853976,1.5975 c 0.749545,0.0131 1.412551,0.25605 1.802717,0.74142 0.851001,1.05871 0.71978,3.46613 -0.291222,5.33453 -1.335887,2.4688 -1.097109,5.95271 0.607204,8.84812 1.561935,2.65358 1.838599,4.29023 0.914717,5.41272 -1.653174,2.00855 -2.490973,3.73337 -2.195579,4.51885 0.182681,0.48579 0.651459,1.70812 1.041758,2.71614 0.675039,1.74331 0.616846,1.95118 -1.194213,4.26801 -2.541253,3.25086 -2.55931,5.87529 -0.07427,10.95574 0.991598,2.0272 1.802717,4.31706 1.802717,5.08827 0,2.36807 -3.783181,5.11148 -8.026565,5.82056 -0.886516,0.14815 -2.69928,0.68294 -4.028265,1.18901 h 0.0013 c -1.329005,0.50602 -2.973713,0.92261 -3.654302,0.92513 -1.557805,0.006 -3.360672,-1.2845 -3.092051,-2.21317 0.284941,-0.98508 3.871107,-2.50114 5.916984,-2.50114 0.939494,0 2.738156,-0.34965 3.996994,-0.77725 2.633326,-0.89443 3.901912,-2.76346 3.277729,-4.82831 -0.430807,-1.42516 -2.633947,-5.35697 -3.39174,-6.0525 -0.269612,-0.24747 -0.644434,-1.31566 -0.832628,-2.37408 -0.295104,-1.65906 -0.141422,-2.08513 1.114079,-3.08945 0.800961,-0.64075 1.761204,-1.5518 2.134334,-2.02423 0.876218,-1.11025 0.866358,-3.96971 -0.02215,-6.1815 -0.638578,-1.58968 -0.560949,-1.96111 0.887351,-4.23284 2.00177,-3.13981 1.986158,-3.62793 -0.224767,-6.80824 -1.798591,-2.5872 -1.804351,-2.61484 -0.865855,-4.49606 0.712005,-1.42743 0.851004,-2.65541 0.563556,-4.99445 -0.345356,-2.81006 -0.260056,-3.20352 0.908198,-4.18332 0.853759,-0.71603 1.960263,-1.07881 2.923964,-1.06196 z m 26.729366,1.37533 c 1.99238,0.0454 3.90694,1.15022 4.67912,3.05949 0.81596,2.01746 0.11426,3.08199 -2.59626,3.93835 -2.5722,0.81264 -3.91568,0.82202 -5.59318,0.0397 -1.92577,-0.89803 -1.88402,-4.40685 0.0704,-5.91959 1.02126,-0.7905 2.24452,-1.14521 3.43996,-1.11799 z m -15.42182,4.89738 c 1.57007,0 2.9135,1.51025 2.96305,3.33181 0.0509,1.86694 1.54209,3.73952 3.54615,4.45305 2.01765,0.71834 11.25445,0.25278 14.64848,-0.73816 3.18614,-0.93027 4.70101,-0.94973 6.58609,-0.0847 2.02519,0.92931 2.89578,1.74196 2.9181,2.72265 0.0391,1.74124 -2.14034,2.01846 -8.71587,1.1082 -1.06834,-0.14788 -3.06211,-0.077 -4.43024,0.15703 -7.30792,1.25048 -15.31195,0.60288 -17.28122,-1.39814 -1.0032,-1.0194 -3.22105,-5.35699 -3.22105,-6.29943 0,-1.17032 1.91171,-3.25231 2.98651,-3.25231 z m -68.924853,7.47148 c 4.654839,0 4.676499,1.72408 0.04951,3.94227 -2.576483,1.23517 -3.219096,2.37684 -3.219096,5.71958 0,2.59428 -0.203335,3.31646 -1.080198,3.84519 -1.362739,0.8213 -2.107301,0.82056 -3.129187,-0.003 -0.984952,-0.79268 -0.98222,-10.2236 0.0033,-11.44959 0.898468,-1.11772 4.263356,-2.0555 7.375709,-2.0555 z m -22.701104,0.056 c 1.708113,0.0291 3.619758,0.36576 4.643292,0.94925 1.19619,0.68191 1.304318,1.09846 1.312133,5.07979 0.0057,2.84937 0.315776,4.92486 0.904943,6.0512 0.86793,1.65928 0.716382,3.20085 -0.314678,3.20085 -0.276397,0 -0.856685,0.0779 -1.28933,0.17265 -1.034426,0.22624 -2.99238,-0.31915 -3.973541,-1.10625 -0.51039,-0.40945 -0.65989,-1.14396 -0.428693,-2.10828 1.141216,-4.76003 1.14233,-4.72565 -0.179164,-5.96129 -0.704249,-0.65849 -2.065381,-1.71958 -3.024946,-2.35845 -1.9669576,-1.30957 -2.2140874,-2.42665 -0.751837,-3.40022 0.567832,-0.37806 1.77329,-0.54185 3.101821,-0.51925 z m 53.093895,0.36811 c 0.879574,0.008 1.953708,0.19464 3.263399,0.55899 1.166263,0.32444 3.844095,0.59026 5.950863,0.59026 2.10676,0 4.513639,0.20724 5.348872,0.46062 1.76539,0.53556 2.479887,1.9661 1.712159,3.42888 -0.430635,0.82055 -0.951249,1.03871 -2.595603,1.08802 -2.265224,0.0679 -4.101946,-0.17356 -5.009437,-0.65868 -0.324866,-0.17367 -1.653824,-0.43857 -2.953282,-0.58831 -1.299454,-0.14974 -3.729933,-0.5263 -5.400989,-0.83719 -3.42225,-0.63667 -4.332464,-1.65743 -2.834708,-3.17935 0.577947,-0.58726 1.387848,-0.87344 2.518726,-0.86324 z m 78.486372,4.01783 c 0.71796,0.0129 1.51258,0.10843 2.36106,0.28992 3.05779,0.65389 4.31363,1.47132 4.31363,2.80735 0,0.84677 -0.47462,1.31695 -1.92,1.9037 -2.65286,1.07691 -4.04827,0.98048 -6.21211,-0.42804 -2.24407,-1.46076 -2.77807,-2.42847 -1.9252,-3.48947 0.59424,-0.73926 1.8031,-1.11161 3.38262,-1.08346 z m 17.71512,0.63522 c 1.20756,0.0304 2.58305,0.59652 3.97549,1.67958 3.00938,2.3408 2.83357,4.10383 -0.52381,5.26353 -1.87077,0.64619 -1.95615,0.64895 -3.61195,0.11397 -2.86895,-0.92686 -4.1486,-4.37354 -2.28223,-6.14762 0.66556,-0.63265 1.50329,-0.9331 2.4425,-0.90951 z m -103.216264,3.68558 c 1.336218,-0.0259 3.012147,0.25406 4.952753,0.85477 2.140588,0.66263 5.442806,1.24521 11.200707,1.97472 2.206971,0.27961 4.532816,0.82167 5.168403,1.20463 1.408185,0.84849 1.535016,3.01823 0.227375,3.88885 -1.417428,0.94373 -2.303888,0.80231 -6.586736,-1.05154 -3.694861,-1.59931 -7.055176,-2.25133 -11.681515,-2.26268 -6.188852,-0.0166 -6.79261,-0.1946 -6.79261,-2.00338 0,-1.66999 1.284593,-2.56236 3.511623,-2.60537 z m 93.125074,5.76062 c 1.42163,0.0207 2.82403,0.33572 3.67319,0.93751 1.75317,1.24248 1.61149,2.4719 -0.44237,3.83934 -1.9357,1.2888 -3.03798,1.37996 -5.75801,0.47756 -2.80455,-0.93043 -3.42049,-3.08738 -1.26393,-4.42504 0.9286,-0.57601 2.36949,-0.85 3.79112,-0.82937 z m -30.62473,3.47252 c 1.93784,-0.013 3.74998,0.31967 4.40354,1.00398 0.81353,0.85188 0.48207,2.89082 -0.56942,3.50186 -0.56852,0.33035 -1.96414,0.87229 -3.10118,1.20462 -2.34551,0.68554 -4.557,0.96689 -6.01536,0.76553 -2.11826,-0.29248 -2.03002,-4.10962 0.12509,-5.40816 1.15576,-0.6964 3.21949,-1.05489 5.15733,-1.06783 z m -61.413631,9.54654 c 3.554297,-0.0253 6.191103,1.92225 4.114264,3.03928 -0.406081,0.21841 -3.162481,0.94836 -6.124816,1.62159 -2.962332,0.67325 -5.698875,1.22419 -6.081162,1.22419 -0.977977,0 -3.594362,-1.81589 -3.594362,-2.49462 0,-1.27543 2.117214,-2.28828 5.918939,-2.8308 2.104833,-0.30037 4.699899,-0.55208 5.767137,-0.55964 z m 6.923562,8.70739 c 1.137916,-0.0101 1.927039,0.18176 2.374743,0.57528 0.457844,0.40245 0.840657,0.93919 0.850867,1.19291 0.03987,0.97906 -3.574758,2.78609 -7.206317,3.60283 -4.472147,1.00575 -3.904758,0.99092 -5.916985,0.16028 -3.213647,-1.32657 -1.763036,-3.0567 3.764408,-4.48955 2.630887,-0.68198 4.670247,-1.02864 6.133284,-1.04175 z m 56.499979,2.48615 h 7.28774 l 6.49683,2.08742 c 3.5735,1.14778 7.6865,2.47497 9.13998,2.94937 1.45349,0.47444 3.04573,1.34453 3.53834,1.93368 0.80655,0.9645 0.8017,1.13414 -0.0508,1.70173 -1.11788,0.74426 -5.03371,1.09862 -6.73853,0.60981 -0.65948,-0.18907 -2.20301,-1.10646 -3.43017,-2.03855 -4.19505,-3.18643 -4.77087,-3.31031 -15.37948,-3.31031 -8.9239,0 -9.41808,-0.0407 -10.21758,-0.84111 -0.75773,-0.75853 -0.69723,-0.95126 0.61372,-1.96624 1.45319,-1.12516 1.45391,-1.1258 8.73996,-1.1258 z m -21.15118,1.02482 c 0.38103,0.004 0.79015,0.0403 1.22679,0.11334 0.90859,0.15183 1.66719,0.77863 2.32001,1.91673 1.20873,2.10745 1.2286,3.53411 0.0691,5.02702 -0.68937,0.88757 -1.311,1.15968 -2.64576,1.15968 -1.4231,0 -1.95146,-0.27152 -2.86597,-1.47436 -2.811196,-3.69739 -1.787361,-6.77679 1.89588,-6.74244 z m -12.772134,5.47656 c 0.957044,-0.009 1.678538,0.44483 2.639904,1.65939 1.213527,1.53309 1.32582,2.21097 1.341452,8.19726 0.01235,4.47431 0.240135,6.70486 0.725127,7.09425 2.145192,1.72247 1.90367,6.43368 -0.442371,8.62726 -1.537025,1.43714 -3.708345,1.52597 -5.008133,0.20523 -0.823455,-0.83673 -0.832547,-1.10217 -0.08013,-2.30112 1.565196,-2.49409 1.731482,-4.40413 0.613067,-7.04801 -0.691694,-1.63518 -1.060994,-3.89842 -1.078897,-6.61475 -0.02053,-3.13356 -0.276217,-4.45234 -1.060654,-5.46809 -0.568505,-0.73619 -1.033288,-1.77838 -1.033288,-2.31611 0,-1.12693 1.479764,-2.01715 3.383927,-2.03531 z m -17.376338,0.54988 c 0.177273,0.005 0.334165,0.0173 0.469735,0.0372 3.922764,0.57362 6.879645,3.4829 7.442814,7.32293 0.291043,1.98449 0.192076,2.26802 -0.937516,2.67052 -1.077273,0.38386 -1.474033,0.29935 -2.688769,-0.57332 -0.78375,-0.56304 -1.601265,-1.71775 -1.816402,-2.56564 -0.420332,-1.65644 -3.062742,-3.52139 -4.989237,-3.52139 -1.082016,0 -4.790581,0.88253 -6.677944,1.58903 -1.699984,0.63636 -9.485082,1.30199 -11.818986,1.01048 -2.712733,-0.33882 -3.974844,-1.15949 -3.974844,-2.58257 0,-0.76369 0.485651,-1.31847 1.568827,-1.791 1.472528,-0.64228 1.814875,-0.64489 5.548234,-0.045 5.158851,0.82902 4.957417,0.83911 11.274976,-0.55834 3.107118,-0.68728 5.358212,-1.02542 6.599112,-0.99289 z m 55.580042,2.25226 c 3.36325,-0.001 3.89877,0.17455 4.87587,0.78571 0.75882,0.47463 1.3799,1.17959 1.3799,1.56688 0,1.2377 -2.32713,1.71285 -8.56471,1.74929 -3.24865,0.0189 -7.14231,0.17309 -8.65266,0.34204 -2.54038,0.28417 -2.8203,0.23123 -3.7403,-0.70362 -1.18408,-1.20318 -0.76384,-2.42711 1.0626,-3.09271 0.75829,-0.27634 4.55123,-0.52241 9.21231,-0.59742 1.87047,-0.0301 3.30591,-0.0498 4.42699,-0.0502 z m -24.29599,5.57168 c 2.69973,2e-4 5.15342,2.67563 5.15342,5.89093 0,1.55209 -0.2885,2.29187 -1.0802,2.76889 -1.53966,0.92771 -3.79186,0.81801 -4.799,-0.23388 -0.51461,-0.53751 -0.9447,-2.29675 -1.09584,-4.48172 -0.23299,-3.36985 -0.17144,-3.61339 0.97791,-3.85626 0.28211,-0.0596 0.56442,-0.088 0.84371,-0.088 z m -24.449747,6.36131 1.364257,0.89648 c 1.137189,0.74765 1.361162,1.30351 1.354481,3.34484 -0.01223,3.29471 -1.412244,4.853 -5.631623,6.26749 -3.748951,1.25678 -4.393877,1.2733 -9.125656,0.23844 -2.480201,-0.54179 -4.386091,-0.7076 -6.349586,-0.55051 -1.543101,0.12343 -4.110405,0.33401 -5.705243,0.46778 -2.174646,0.1824 -3.39343,0.0696 -4.873273,-0.45149 -1.501102,-0.52856 -3.86653,-0.73964 -9.885964,-0.88085 -6.44735,-0.15116 -8.27441,-0.3275 -9.867067,-0.95316 -4.148892,-1.62978 -2.822235,-3.85691 2.297863,-3.85691 1.617491,0 3.90248,0.17165 5.077191,0.38114 6.921002,1.23419 12.758893,1.74403 20.176515,1.76232 6.589314,0.0161 8.277279,0.14065 9.57715,0.70753 2.304329,1.00494 5.841287,0.89966 7.423266,-0.22151 0.974033,-0.69029 1.284121,-1.39786 1.284121,-2.92787 0,-1.57521 0.316068,-2.25915 1.441785,-3.12072 z m 2.97934,14.74686 c 2.975688,0 4.584476,2.35194 2.976736,4.35206 -0.462603,0.57548 -1.24559,0.76031 -3.215836,0.76031 -3.367408,0 -5.991043,-1.3441 -5.43422,-2.78388 0.434971,-1.12471 3.368015,-2.32849 5.67332,-2.32849 z m -19.625337,0.83198 c 0.473702,0.006 0.98444,0.0419 1.530389,0.11006 5.014073,0.62629 6.088724,2.87788 2.351939,4.92864 -3.520089,1.93184 -6.601959,1.46443 -7.682568,-1.16424 -1.011898,-2.46154 0.484316,-3.91493 3.80024,-3.8745 z m 72.510744,0.0802 c 1.90027,9.1e-4 3.21371,0.0353 3.481,0.10363 1.59924,0.40858 1.14009,1.96634 -0.91927,3.12006 -1.61644,0.90563 -2.23783,1.02241 -4.28235,0.80658 -9.10282,-0.96108 -13.565,-0.64027 -18.60313,1.33753 -2.82384,1.10853 -6.37103,1.5598 -7.31642,0.93035 -0.65888,-0.43867 -0.43988,-2.30361 0.34464,-2.93503 2.5052,-2.01636 8.37003,-2.95992 20.29184,-3.26471 2.61586,-0.0669 5.10342,-0.0993 7.00369,-0.0983 z m -37.991961,0.71209 c 0.322958,0.0101 0.665756,0.0543 1.028078,0.13096 1.022847,0.21614 1.251543,0.57744 1.251543,1.97732 0,1.73638 -0.473043,3.62715 -2.183198,8.72564 -0.799702,2.38426 -0.829826,3.10165 -0.194149,4.61331 0.414029,0.98451 1.111063,1.98863 1.549283,2.23077 0.438216,0.24213 0.969362,1.05142 1.179879,1.7988 0.308105,1.09352 0.118015,1.54655 -0.973351,2.32002 -1.670773,1.184 -3.445891,1.2223 -5.552142,0.11926 -1.576381,-0.82558 -1.598834,-0.89717 -1.129712,-3.63801 0.263181,-1.53756 0.49967,-5.18416 0.525769,-8.10409 0.06441,-7.22291 1.376091,-10.27334 4.498,-10.17394 z m -57.888984,2.00795 a 99.19873,100.06081 0 0 0 8.838344,6.25706 c -0.03414,-0.14941 -0.06785,-0.29891 -0.09578,-0.44692 -0.793956,-4.20989 -2.230412,-5.49275 -8.742571,-5.81014 z m 37.05836,8.16599 c -1.595005,0 -2.356456,0.41703 -6.327437,3.46667 -1.573603,1.20849 -2.027638,1.32096 -6.186707,1.53039 -1.108848,0.0559 -1.951449,0.0925 -2.671177,0.0944 a 99.19873,100.06081 0 0 0 15.328,5.17165 c -1.939748,-1.13102 -1.545487,-2.26439 1.408559,-4.05432 2.261201,-1.37011 2.658147,-1.83461 2.658147,-3.10834 0,-1.78997 -1.779854,-3.10052 -4.209385,-3.10052 z"
       id="path930"
       inkscape:connector-curvature="0" />
  </g>
</svg>
