<?xml version="1.0" encoding="UTF-8" standalone="no"?>
<!-- Created with Inkscape (http://www.inkscape.org/) -->

<svg
   xmlns:dc="http://purl.org/dc/elements/1.1/"
   xmlns:cc="http://creativecommons.org/ns#"
   xmlns:rdf="http://www.w3.org/1999/02/22-rdf-syntax-ns#"
   xmlns:svg="http://www.w3.org/2000/svg"
   xmlns="http://www.w3.org/2000/svg"
   xmlns:sodipodi="http://sodipodi.sourceforge.net/DTD/sodipodi-0.dtd"
   xmlns:inkscape="http://www.inkscape.org/namespaces/inkscape"
   width="24"
   height="24"
   viewBox="0 0 100 100"
   version="1.1"
   id="svg8"
   inkscape:version="0.92.2 5c3e80d, 2017-08-06"
   sodipodi:docname="rxndif_002424_dark.svg">
  <defs
     id="defs2" />
  <sodipodi:namedview
     id="base"
     pagecolor="#ffffff"
     bordercolor="#666666"
     borderopacity="1.0"
     inkscape:pageopacity="0.0"
     inkscape:pageshadow="2"
     inkscape:zoom="11.510815"
     inkscape:cx="15.301089"
     inkscape:cy="4.2245714"
     inkscape:document-units="mm"
     inkscape:current-layer="layer1"
     showgrid="false"
     inkscape:window-width="1280"
     inkscape:window-height="755"
     inkscape:window-x="-3"
     inkscape:window-y="38"
     inkscape:window-maximized="0" />
  <metadata
     id="metadata5">
    <rdf:RDF>
      <cc:Work
         rdf:about="">
        <dc:format>image/svg+xml</dc:format>
        <dc:type
           rdf:resource="http://purl.org/dc/dcmitype/StillImage" />
        <dc:title></dc:title>
      </cc:Work>
    </rdf:RDF>
  </metadata>
  <g
     inkscape:label="Layer 1"
     inkscape:groupmode="layer"
     id="layer1"
     transform="translate(0,-97)"
     style="opacity:0.77999998">
    <path
       style="fill:#000000;fill-opacity:0.64402175;stroke-width:0.2420488"
       d="m 50.031055,96.938261 a 50.037433,50.033856 0 0 0 -10.331166,1.137943 c -0.453864,0.236697 -0.921946,0.422029 -1.368418,0.529443 -0.343879,0.08234 -0.964607,0.13847 -1.733523,0.171565 a 50.037433,50.033856 0 0 0 -6.964336,2.574908 c 1.087424,0.0744 2.469284,0.14774 3.809156,0.19169 3.36961,0.11146 4.218826,0.0808 5.246912,-0.19063 1.550558,-0.40985 2.235278,-0.40903 2.859415,0.003 0.588562,0.38867 0.42441,1.2207 -0.359842,1.82534 v 2.6e-4 c -0.565776,0.43673 -2.096636,0.50615 -4.4135,0.20228 -2.40078,-0.31498 -6.857168,-0.42812 -8.570686,-0.21763 -0.986355,0.12179 -1.739904,0.13662 -2.310273,0.0416 a 50.037433,50.033856 0 0 0 -8.483925,5.90425 c -0.08655,0.14641 -0.186063,0.29553 -0.298717,0.45322 -0.680374,0.94922 -1.133505,1.38801 -2.054597,1.63574 a 50.037433,50.033856 0 0 0 -2.819323,3.02575 c 0.540551,-0.0376 1.064742,-0.0913 1.549166,-0.14271 1.489749,-0.15965 2.405851,0.17501 3.18443,1.15976 0.338523,0.4277 1.078465,1.17959 1.644138,1.66853 1.117776,0.96619 1.319579,1.79198 0.560315,2.29315 -0.620936,0.41114 -1.708959,0.39237 -2.297785,-0.0334 -0.261118,-0.18984 -0.705162,-0.83977 -0.986547,-1.44279 -0.665135,-1.42577 -1.873469,-2.03371 -3.759533,-1.89183 -0.223159,0.0132 -0.78869,0.0535 -1.268187,0.0842 a 50.037433,50.033856 0 0 0 -2.19328,2.90437 c 3.295424,-0.13794 3.31759,0.0376 4.326751,1.40382 1.277677,1.72214 1.811113,1.94348 4.660307,1.93448 2.007593,-0.005 2.628678,-0.0858 3.550524,-0.4618 0.614501,-0.24861 1.117344,-0.52049 1.117344,-0.60132 0,-0.081 0.263864,-0.36069 0.586607,-0.61973 1.823345,-1.46823 2.750363,-1.67824 3.812109,-0.8636 1.226803,0.94136 0.322951,2.24083 -1.7792,2.55836 -0.874106,0.13212 -2.378024,0.61554 -4.258397,1.36924 -1.418073,0.56839 -3.652061,0.63143 -5.958728,0.1668 -1.742372,-0.34901 -2.469726,-0.72582 -2.998095,-1.54906 -0.562167,-0.87599 -1.8425338,-1.63673 -2.9948088,-1.77941 -0.2469533,-0.0238 -0.5921465,-0.0291 -1.0157964,-0.008 a 50.037433,50.033856 0 0 0 -1.7815061,2.98528 c 1.1877604,-0.18506 1.784611,-0.081 2.2044517,0.31483 0.6064114,0.57143 0.2166594,1.01009 -1.5481765,1.74171 -0.6342987,0.26317 -1.276489,0.43661 -1.8994853,0.51729 a 50.037433,50.033856 0 0 0 -1.4647092,3.51324 c 0.019116,0.103 0.02758,0.2142 0.02758,0.33983 0,0.3027 -0.1033309,0.48332 -0.376282,0.61535 A 50.037433,50.033856 0 0 0 1.91165,133.43266 c 0.6285011,0.0159 1.269372,-0.0212 2.2366597,-0.12311 3.1081617,-0.31229 3.5053413,-0.28854 4.3369368,0.26052 0.9153066,0.60411 0.9448611,1.36273 0.069018,1.7676 -0.7462867,0.34438 -0.5744255,0.3448 -4.4026619,-0.0132 -0.7933708,-0.0747 -1.7056141,-0.17421 -2.6517197,-0.28059 a 50.037433,50.033856 0 0 0 -0.62636974,2.7694 c 2.23584714,0.2457 4.67689544,0.3861 7.00377354,0.3861 2.4808563,0 4.0528693,0.0956 4.9143403,0.29436 1.753107,0.40903 2.927537,0.36943 4.478248,-0.14879 2.221522,-0.74072 3.254015,-2.17975 3.831502,-5.33912 0.247036,-1.35155 0.393431,-1.61256 1.126545,-2.0084 0.994097,-0.53691 2.68175,-0.8022 3.349402,-0.5265 0.898842,0.37069 0.74428,1.19815 -0.376945,2.01724 -1.640648,1.19852 -1.908324,1.57003 -2.413131,3.34928 -0.539985,1.90329 -1.806887,3.37822 -3.291892,3.83242 -0.491599,0.15144 -2.100369,0.3669 -3.57517,0.48149 -3.12583,0.24173 -3.085957,0.24226 -7.7464788,-0.11305 -2.0058041,-0.15462 -4.5795827,-0.22399 -5.8630963,-0.15965 -0.7538854,0.0334 -1.3047803,0.0506 -1.75455796,0.0291 a 50.037433,50.033856 0 0 0 -0.36806635,3.18097 c 0.67584531,-0.46418 1.57624651,-0.56825 3.50845911,-0.56275 1.3154369,0.005 3.4640669,0.13477 4.7750021,0.29063 3.0146722,0.36026 4.6879462,0.35942 8.0445442,-0.005 4.202935,-0.45547 4.297443,-0.44409 6.605144,0.83762 4.013671,2.22887 4.120695,2.32299 4.120695,3.62212 0,1.14904 -0.0074,1.15809 -1.732208,2.25227 -1.986464,1.25979 -2.289899,1.67003 -2.289899,3.09609 0,0.5663 -0.160916,1.13559 -0.35756,1.26537 -0.542707,0.35942 -2.164941,0.28563 -2.724676,-0.1247 -1.158724,-0.84509 -0.335129,-2.40408 2.182106,-4.13019 3.037693,-2.08293 2.837973,-3.49215 -0.654632,-4.61723 -2.519796,-0.81178 -4.201348,-0.98877 -6.040557,-0.63595 -0.857492,0.16388 -1.946206,0.43312 -2.419376,0.59555 -1.069042,0.36775 -2.477664,0.38359 -3.2517988,0.0291 -1.0316064,-0.46505 -3.47787,-0.91522 -4.9728362,-0.91522 -2.8309211,0 -4.24494253,0.82303 -4.89659453,2.84965 C 0.06026221,147.01045 0.03118619,147.07902 0,147.146 a 50.037433,50.033856 0 0 0 0.15774454,3.67928 c 0.94826766,-0.0132 1.20387966,0.0741 1.63066446,0.35484 0.5273271,0.34691 0.6179146,0.58475 0.4962321,1.29727 -0.081869,0.47935 -0.2250574,0.92214 -0.3181166,0.98349 -0.091652,0.0596 -0.7467491,0.15356 -1.46339117,0.20757 a 50.037433,50.033856 0 0 0 0.43083161,2.74639 c 1.53354146,-0.23643 2.63019146,-0.10431 4.29289976,0.45211 2.5276705,0.8461 4.4932692,0.82237 9.0544273,-0.10802 2.191481,-0.44719 4.380627,-0.57602 4.904155,-0.28936 0.783224,0.42817 3.541245,0.47681 5.387894,0.0948 1.535279,-0.31856 2.074009,-0.33439 5.051383,-0.13635 2.88977,0.18983 3.613259,0.31523 5.44179,0.93805 1.159886,0.39441 2.316183,0.86895 2.56956,1.0537 0.570163,0.41615 2.565948,3.6469 2.565948,4.15402 0,0.20519 -0.298004,0.50855 -0.662191,0.67705 -0.364203,0.16706 -1.026749,0.3077 -1.472594,0.3077 -1.180284,0 -1.738451,-0.64946 -1.738451,-2.02309 0,-1.84713 -0.768697,-2.45338 -3.937326,-3.10531 -2.326414,-0.47882 -4.668939,-0.44895 -7.649861,0.098 -1.866376,0.34188 -1.942508,0.34064 -3.80521,-0.0617 -2.531636,-0.54854 -3.628007,-0.52044 -6.805938,0.17474 -3.375446,0.73691 -5.3418805,0.76135 -8.3120511,0.10352 -2.3563076,-0.52203 -2.969734,-0.59664 -4.4121929,-0.21763 a 50.037433,50.033856 0 0 0 0.7528929,2.85992 c 1.2942953,-0.13397 2.7662524,-0.0704 3.7799072,0.2134 1.7993718,0.50201 6.2568279,0.37358 9.0508119,-0.2592 2.742027,-0.62158 3.936751,-0.66061 4.920584,-0.16098 0.550636,0.28062 0.669391,0.47644 0.521538,0.86527 -0.228799,0.60169 -1.21216,0.84077 -4.214028,1.02462 -1.147069,0.0712 -2.746691,0.2547 -3.554798,0.40988 -1.881811,0.36066 -4.3468149,0.35274 -6.4260388,-0.0132 -1.5069016,-0.26643 -2.5363359,-0.34106 -3.4591664,-0.21525 a 50.037433,50.033856 0 0 0 1.1091284,2.9558 c 0.7330887,-0.0972 1.5637228,-0.0159 2.8488981,0.12126 2.0342611,0.21684 4.9510827,0.12046 6.7421837,-0.22717 1.138006,-0.21843 6.555186,-0.64265 7.768824,-0.60659 1.926855,0.0567 3.288509,1.25449 2.420692,2.12865 -0.578446,0.58269 -1.258027,0.58022 -3.804883,-0.0132 l -2.016478,-0.46963 -2.899835,0.50304 c -2.10349,0.36482 -3.75875,0.51234 -6.0280672,0.53681 -2.2669684,0.0212 -3.415681,0.0334 -4.1003242,0.10723 a 50.037433,50.033856 0 0 0 1.4479462,2.82812 c 0.7282311,-0.1668 1.651574,-0.21022 3.8282172,-0.29314 2.07503,-0.0797 4.403348,-0.28851 5.229826,-0.46831 1.631144,-0.35608 3.657538,-0.29103 4.060556,0.12894 0.137732,0.14217 0.250419,0.43823 0.250419,0.65385 0,0.86108 -0.411743,0.97768 -3.926804,1.10959 -4.47954,0.1668 -6.5428654,0.33439 -8.2808299,0.89457 a 50.037433,50.033856 0 0 0 1.7752617,2.65405 c 1.6636232,-0.54048 3.9117072,-0.78163 7.8322502,-0.92256 3.32256,-0.11967 3.598243,-0.10035 5.478269,0.39608 3.041,0.803 4.701888,0.84483 7.729058,0.19354 2.049951,-0.44045 2.682147,-0.50429 3.256399,-0.33275 0.873868,0.26317 1.283456,1.39857 0.771627,2.14006 -0.334345,0.48425 -0.408288,0.49622 -2.197552,0.35651 -1.018335,-0.0797 -3.460277,-0.16416 -5.426679,-0.18931 -2.41621,-0.0238 -4.154808,-0.16044 -5.362918,-0.40026 -1.221632,-0.24226 -2.836653,-0.36233 -5.100672,-0.37401 l -3.312924,-0.0159 -2.049997,0.91708 c -0.08952,0.0334 -0.180771,0.077 -0.271437,0.11596 a 50.037433,50.033856 0 0 0 6.29163,6.67736 c 0.490377,0.0159 1.021333,0.0291 1.628035,0.0506 5.739232,0.13794 5.860013,0.18665 6.510499,2.604 0.544333,2.02222 1.840747,3.33237 3.879482,3.92032 1.244446,0.35984 1.385813,0.36275 2.532427,0.0593 0.66794,-0.17713 1.817705,-0.60503 2.555101,-0.95293 1.911973,-0.90217 2.229848,-0.94745 4.744767,-0.67533 2.79597,0.30395 3.305614,0.61489 3.284333,2.01229 -0.0346,2.26509 -0.439769,3.69628 -1.154806,4.07841 v 5.3e-4 c -0.456661,0.24305 -1.01842,0.35984 -1.567898,0.34692 A 50.037433,50.033856 0 0 0 50.031036,197 a 50.037433,50.033856 0 0 0 3.173902,-0.11173 c 0.591677,-0.42041 1.564158,-0.88539 2.014181,-0.88539 0.504618,0 1.002277,0.20334 1.369744,0.50604 a 50.037433,50.033856 0 0 0 3.990869,-0.695 c -0.793171,-1.15504 -0.259095,-1.97408 1.34706,-1.97408 1.056066,0 1.557778,0.22875 1.834093,1.22288 a 50.037433,50.033856 0 0 0 3.740144,-1.24261 c -0.26989,-0.79415 -0.699391,-1.29166 -1.464376,-1.91234 -0.523022,-0.42391 -2.507971,-1.01769 -3.402647,-1.01756 -1.389818,2.7e-4 -3.649505,0.68062 -5.213057,1.56959 -1.727929,0.98223 -3.626836,1.27699 -4.502565,0.69905 -0.510878,-0.33773 -0.681088,-1.58489 -0.272725,-1.99935 0.120413,-0.12338 1.159503,-0.25761 2.308961,-0.2977 1.758819,-0.0638 2.34864,-0.18427 3.724043,-0.75777 1.553028,-0.64755 1.769022,-0.68134 4.343507,-0.68443 1.777601,-0.002 2.981573,0.0937 3.501225,0.27519 0.506946,0.17924 1.347666,0.95735 2.335247,2.1631 l 0.858069,1.04745 a 50.037433,50.033856 0 0 0 3.299435,-1.51264 c -0.02383,-0.0238 -0.04228,-0.0609 -0.04228,-0.10008 0,-0.10299 -0.40227,-0.5799 -0.893887,-1.06066 -1.109998,-1.08568 -1.143572,-1.74032 -0.116945,-2.27326 1.135844,-0.5897 1.762796,-0.26855 2.45619,1.2561 0.146227,0.32066 0.359116,0.66935 0.614539,1.0187 a 50.037433,50.033856 0 0 0 3.08617,-1.91939 c -0.220731,-0.33272 -0.378878,-0.65308 -0.378878,-0.84601 0,-0.81875 1.080379,-0.91565 2.118666,-0.39736 a 50.037433,50.033856 0 0 0 2.699049,-2.16312 c -1.493459,-1.1699 -3.800291,-1.49463 -5.748086,-0.77837 -0.553353,0.20439 -1.075065,0.42904 -1.159066,0.50315 -0.16206,0.13979 -1.301362,0.24278 -2.136106,0.19142 -0.275685,-0.0159 -0.586399,-0.2081 -0.690447,-0.42341 -0.563248,-1.17135 1.200724,-1.87604 5.425364,-2.16773 3.853373,-0.26558 4.446896,-0.13926 5.658682,1.19754 0.05496,0.0596 0.09595,0.10511 0.147339,0.16098 a 50.037433,50.033856 0 0 0 5.222928,-5.67984 c -1.438588,0.002 -2.847385,0.34734 -3.896249,0.9575 -0.418598,0.24279 -1.458517,0.34856 -4.320172,0.44319 -3.807474,0.12497 -7.020539,0.50463 -8.386656,0.99381 -1.062291,0.37982 -2.505363,1.01279 -2.688851,1.17837 -0.369665,0.33437 -3.172405,0.59185 -8.059332,0.74287 -5.025003,0.15541 -5.311816,0.18639 -7.106642,0.77429 -1.028653,0.33773 -2.169231,0.61242 -2.534397,0.61242 -0.895957,0 -1.485864,-0.73966 -1.110109,-1.39193 0.408399,-0.70922 0.950397,-0.94189 2.707265,-1.16175 0.856706,-0.10722 1.714675,-0.2592 1.906704,-0.33775 0.192137,-0.0784 2.435985,-0.15727 4.986313,-0.17554 5.068725,-0.0291 6.780567,-0.25682 9.764597,-1.25981 3.020139,-1.01623 4.617321,-1.34414 7.646244,-1.56988 6.883782,-0.51302 10.325942,-1.16132 12.707154,-2.39346 0.179587,-0.0937 0.351735,-0.1758 0.518908,-0.24941 a 50.037433,50.033856 0 0 0 2.114745,-3.44891 c -0.136961,-0.005 -0.277057,-0.008 -0.424494,-0.008 -0.99447,0 -1.765224,0.16521 -2.919874,0.62939 -0.862766,0.34525 -1.635458,0.68435 -1.71742,0.75203 -0.309083,0.25549 -2.588403,0.96275 -4.022122,1.24903 -0.819333,0.1631 -2.696492,0.39068 -4.171302,0.50421 -5.660765,0.43704 -7.813771,0.81915 -11.241139,1.99935 -0.938978,0.32229 -2.615008,0.71456 -3.724363,0.86976 v -2.6e-4 c -1.109339,0.15541 -3.058865,0.28396 -4.332334,0.28644 -2.182956,0.003 -2.33504,-0.0212 -2.655004,-0.48832 -0.453597,-0.65714 0.05751,-1.39166 1.055886,-1.51766 0.413737,-0.0522 2.07524,-0.0524 3.691832,-0.001 3.264926,0.10432 3.928076,-0.0238 6.21211,-1.26264 1.112989,-0.60016 1.398931,-0.65899 3.194282,-0.65899 1.5093,0 2.375734,-0.12471 3.693474,-0.52577 1.351187,-0.41318 2.375034,-0.55319 4.757596,-0.65422 1.669698,-0.0718 3.211503,-0.22134 3.426293,-0.33609 0.214721,-0.11252 0.725758,-0.26977 1.135415,-0.34731 0.409776,-0.0784 1.792716,-0.67229 3.073694,-1.32034 2.001459,-1.0125 2.512062,-1.17999 3.630696,-1.19111 0.553322,-0.005 1.315911,0.12338 2.227137,0.36275 a 50.037433,50.033856 0 0 0 1.249251,-2.58582 c -0.880296,-0.25337 -1.711662,-0.46598 -2.235995,-0.56521 -1.591283,-0.30185 -1.856754,-0.30476 -3.139747,-0.0212 -0.770796,0.16918 -1.805088,0.5498 -2.298436,0.84618 -1.417712,0.85144 -4.102204,2.01353 -4.651761,2.01353 -0.275643,0 -0.583957,0.0876 -0.685197,0.19672 -0.317462,0.33897 -2.11972,0.21393 -2.921525,-0.20307 -0.421982,-0.21816 -0.85811,-0.59518 -0.968788,-0.8358 -0.381047,-0.82817 -1.553865,-1.62849 -3.149937,-2.14917 -9.45253,-3.0819 -11.131134,-3.42222 -15.232025,-3.08495 -1.515064,0.1255 -3.31724,0.39233 -4.004692,0.59447 -0.687439,0.2036 -1.784154,0.36773 -2.437444,0.36773 -0.971054,0 -1.300449,-0.10432 -1.804189,-0.57125 -0.338894,-0.31438 -0.616176,-0.75528 -0.616176,-0.9803 0,-0.22637 -0.335142,-1.17231 -0.74468,-2.10549 -0.854308,-1.94562 -0.922587,-2.76098 -0.311669,-3.72622 0.519003,-0.81981 1.141923,-1.01719 2.119333,-0.67205 0.650317,0.23061 0.724631,0.38401 0.724631,1.498 0,0.68305 -0.162696,1.64416 -0.361953,2.13548 -0.309291,0.76288 -0.291655,0.9712 0.12134,1.42839 0.84067,0.93108 1.739425,1.14869 3.569907,0.86426 0.872656,-0.13503 2.391191,-0.34022 3.374384,-0.45452 0.983212,-0.11332 1.943371,-0.29187 2.133795,-0.39484 0.799766,-0.431 2.660966,-0.26026 4.188725,0.38817 1.489925,0.63114 4.338035,1.45926 6.339939,1.84369 2.426959,0.46582 4.636635,1.38195 6.461864,2.67893 1.790241,1.27184 1.894811,1.31375 3.292885,1.31375 1.298553,0 1.652904,-0.10829 3.516669,-1.077 1.139857,-0.5923 2.14761,-1.14565 2.239614,-1.22987 0.484172,-0.44315 2.280515,-1.13426 2.944536,-1.13368 0.418728,3.5e-4 1.163707,0.1623 1.655308,0.36108 1.404836,0.565 2.541863,0.98195 3.505827,1.26427 a 50.037433,50.033856 0 0 0 0.99937,-2.73679 c -1.024398,-0.24861 -2.587466,-0.79963 -2.866656,-1.05653 -0.391013,-0.36066 -2.359409,-0.84535 -3.426296,-0.84535 -1.057641,0 -3.021126,0.48133 -3.426295,0.84016 -0.08197,0.0733 -0.985849,0.63556 -2.008592,1.25103 -2.345193,1.41096 -2.880445,1.42997 -4.936361,0.17606 -2.073082,-1.26587 -2.651802,-1.48406 -5.538406,-2.08587 -3.040607,-0.63402 -6.511271,-1.69224 -7.394506,-2.2551 -0.598006,-0.38025 -0.65625,-0.59606 -0.613891,-2.26898 0.04448,-1.73145 -0.0042,-1.89256 -0.762748,-2.54882 -0.586719,-0.50774 -1.232233,-0.78338 -2.345109,-1.00146 -2.01462,-0.39442 -2.889632,-0.37692 -5.747419,0.10722 -3.711215,0.6308 -3.959498,0.64393 -5.37607,0.28685 -1.419335,-0.35899 -1.85115,-0.86191 -1.508745,-1.76233 0.236088,-0.62103 0.787575,-0.67861 3.296168,-0.34356 1.639481,0.21764 2.49126,0.23088 4.079607,0.0564 2.901634,-0.3165 6.085548,-0.27853 7.255186,0.0879 1.021947,0.3198 2.284256,1.14978 3.240293,2.12992 0.436795,0.44758 0.517298,0.78584 0.376212,1.57777 -0.238285,1.33815 0.198015,2.28534 1.378614,2.99453 1.097274,0.65899 3.523023,1.24864 5.136176,1.24864 1.378791,0 2.079956,0.24675 3.653047,1.2888 2.365408,1.56553 4.83715,1.3139 7.594979,-0.77252 1.987969,-1.50398 2.68059,-1.62169 4.949498,-0.84276 0.99602,0.34149 2.169233,0.83135 2.607359,1.0879 0.93304,0.5461 2.101828,0.80019 3.046395,0.69092 a 50.037433,50.033856 0 0 0 1.205423,-4.96313 c -0.23749,0.16124 -0.466909,0.35065 -0.6911,0.57551 -1.207197,1.20405 -1.653998,1.18317 -5.235086,-0.24226 -0.673721,-0.26725 -1.749396,-0.44945 -3.038851,-0.51212 -2.401418,-0.11676 -3.083779,0.11517 -5.052689,1.72399 h -2.65e-4 c -1.287385,1.05139 -2.325161,1.39754 -3.102924,1.03437 -1.168828,-0.54573 -0.261292,-2.25857 1.535366,-2.89707 0.596094,-0.21181 1.763868,-0.72036 2.594866,-1.12963 1.679499,-0.82698 3.250478,-0.97718 4.76448,-0.45584 1.491098,0.51337 4.34436,0.94798 5.447712,0.82981 0.585104,-0.0614 1.781449,-0.42774 2.65829,-0.81252 0.148769,-0.0659 0.291738,-0.1247 0.432373,-0.17977 a 50.037433,50.033856 0 0 0 0.391137,-3.20994 c -0.592363,0.0609 -1.04624,0.17712 -1.529448,0.36942 -0.592874,0.23775 -1.155955,0.50598 -1.2511,0.5968 -0.421934,0.40069 -2.402543,0.3844 -4.508157,-0.0376 -3.627265,-0.73333 -3.982937,-0.87541 -4.747723,-1.89852 -0.385591,-0.51586 -1.270748,-1.2937 -1.967178,-1.7286 -1.05693,-0.66 -1.266218,-0.91425 -1.266218,-1.53731 0,-0.60546 0.140509,-0.78888 0.744673,-0.97061 1.193694,-0.35982 2.015618,0.0291 3.043456,1.45367 1.51335,2.091 3.489083,3.10501 6.05074,3.10501 1.135693,0 2.069037,-0.21446 5.291278,-1.21743 0.07906,-0.0212 0.158142,-0.0485 0.236882,-0.0696 a 50.037433,50.033856 0 0 0 0.106406,-2.12921 50.037433,50.033856 0 0 0 -0.0346,-0.9982 c -0.38275,0.16971 -0.89062,0.34189 -1.627379,0.5731 -4.015082,1.25783 -5.149409,1.12047 -6.660027,-0.80699 -0.409694,-0.52272 -0.90242,-1.06233 -1.094674,-1.19889 -0.192375,-0.13582 -0.59418,-0.44859 -0.893542,-0.6942 -1.148667,-0.94165 -2.212633,-1.32588 -3.67277,-1.32588 -2.164978,0 -4.021798,1.08915 -5.096075,2.98897 -0.348693,0.61642 -0.869634,1.26172 -1.158094,1.43405 v 3.8e-4 c -0.757429,0.4521 -2.333356,0.52925 -3.875871,0.18851 -0.737407,-0.1623 -2.052672,-0.3882 -2.923161,-0.49971 -0.870485,-0.11147 -1.814689,-0.35275 -2.097978,-0.53567 -0.283316,-0.18268 -1.275807,-0.77104 -2.205768,-1.30765 -1.671151,-0.96421 -1.698464,-0.99731 -2.333274,-2.83652 -0.498293,-1.44377 -0.588858,-2.10639 -0.403437,-2.95701 0.131454,-0.60305 0.248504,-1.70417 0.259889,-2.44666 0.02118,-1.32847 0.0026,-1.36035 -1.126228,-2.00411 -2.00162,-1.14155 -6.818823,-1.5945 -10.323588,-0.97048 -1.929177,0.34315 -3.123189,0.13502 -3.400015,-0.59265 -0.252158,-0.6633 0.07625,-1.06727 0.975049,-1.19947 0.432459,-0.0622 1.255619,-0.19354 1.829164,-0.29145 1.340898,-0.22849 3.671623,-0.23061 4.036887,-0.005 0.489385,0.30185 4.124847,0.80884 5.798034,0.80884 1.946778,0 3.677733,0.68534 4.149284,1.64319 0.167276,0.33979 0.415781,2.29948 0.552098,4.35437 0.206726,3.11658 0.340478,3.8339 0.804485,4.32598 0.802539,0.85079 2.591302,2.06479 3.042791,2.06479 0.212445,0 0.386467,0.0821 0.386467,0.18295 0,0.10088 0.737203,0.29061 1.638217,0.42383 2.283703,0.33773 3.749106,0.0291 4.905458,-1.02134 0.475898,-0.43312 0.955928,-1.0708 1.067077,-1.41618 0.390055,-1.21234 1.816405,-1.81131 5.044805,-2.11936 2.870836,-0.27268 3.488958,-0.12258 4.657347,1.14967 0.555821,0.60453 1.756915,1.6146 2.669136,2.24452 1.561596,1.0785 1.740233,1.14546 3.058895,1.14546 1.211009,0 1.538815,-0.095 2.420695,-0.69333 0.420737,-0.28647 1.012047,-0.79585 1.490658,-1.27435 a 50.037433,50.033856 0 0 0 -2.270504,-11.48711 c -1.161716,-0.23087 -2.363263,-0.0334 -4.215993,0.55028 -2.125672,0.67479 -2.348434,0.70461 -4.425004,0.59214 -1.682255,-0.0898 -2.78019,-0.0212 -4.759886,0.2952 -3.177526,0.51176 -4.021391,0.51676 -5.228514,0.0238 -1.152212,-0.46415 -1.650963,-1.03212 -1.527143,-1.74027 0.12322,-0.70345 1.235437,-0.7927 3.09931,-0.24861 1.692687,0.4942 3.270065,0.51755 4.619561,0.0696 0.778927,-0.26026 1.808671,-0.33982 4.440463,-0.34356 3.185603,-0.005 3.551996,-0.0485 5.214042,-0.58829 0.753335,-0.24438 1.494076,-0.41237 2.158449,-0.49614 a 50.037433,50.033856 0 0 0 -1.096971,-2.73384 c -0.542329,0.14376 -1.176609,0.32271 -1.955343,0.55787 -2.238932,0.67295 -3.412012,0.80564 -4.491732,0.50774 -0.804424,-0.22108 -1.018456,-0.41028 -1.169262,-1.02392 -0.232539,-0.94742 -0.891419,-1.74795 -2.136765,-2.59574 -1.2503,-0.85113 -1.454908,-1.30329 -0.860347,-1.90228 1.137599,-1.1457 3.81196,0.0212 4.212721,1.84226 0.242494,1.10019 0.818734,1.90893 1.479477,2.07626 1.098486,0.27935 2.021274,0.10828 2.95209,-0.54274 0.387133,-0.27019 0.780161,-0.49762 1.178804,-0.68507 a 50.037433,50.033856 0 0 0 -1.527802,-2.91902 c -0.479496,-0.10537 -0.957236,-0.43754 -1.95009,-1.13566 -1.733569,-1.22082 -1.928844,-2.31166 -0.434418,-2.42543 0.06571,-0.005 0.132037,-0.005 0.199048,-0.005 a 50.037433,50.033856 0 0 0 -2.273131,-3.16077 c -0.577709,0.0731 -1.060567,0.25973 -1.520576,0.56272 -0.859306,0.56715 -1.255368,1.31094 -1.255368,2.35696 0,0.28935 -0.160975,0.63222 -0.357531,0.76195 -0.566533,0.37276 -1.964014,0.28687 -2.313567,-0.14429 -0.453738,-0.55957 -0.381129,-1.1698 0.312502,-2.62826 0.715806,-1.50514 1.52709,-1.96461 4.014876,-2.18306 a 50.037433,50.033856 0 0 0 -2.198135,-2.48513 c -3.082172,0.44136 -4.822238,1.4348 -5.506547,3.12 -0.249114,0.6135 -0.537352,1.44467 -0.640489,1.84711 -0.109188,0.42563 -0.459157,0.85721 -0.838014,1.03243 -0.805976,0.37191 -0.825518,0.37149 -1.677,-0.0159 -0.602062,-0.2798 -0.676115,-0.44178 -0.545842,-1.20448 0.08276,-0.48531 0.285235,-0.93757 0.449583,-1.00527 0.16439,-0.0683 0.649935,-0.8828 1.078562,-1.81137 0.459475,-0.99521 1.053249,-1.85335 1.446632,-2.09058 0.896581,-0.54008 2.983927,-1.11925 4.686915,-1.30694 a 50.037433,50.033856 0 0 0 -2.705056,-2.4058 c -1.534675,0.25946 -2.818036,0.65247 -3.603106,1.12031 -0.544055,0.32309 -1.299281,0.67326 -1.678644,0.77543 -1.080403,0.29103 -1.492384,0.22611 -2.041123,-0.32857 -0.489165,-0.49272 -0.48222,-0.54869 0.174239,-1.36527 0.677736,-0.84321 0.710783,-0.85517 3.408223,-1.26532 0.592017,-0.089 1.251203,-0.21207 1.894223,-0.3408 a 50.037433,50.033856 0 0 0 -3.438186,-2.3228 c -1.917008,0.25629 -3.34231,0.66392 -4.165061,1.20697 -0.973725,0.64263 -2.14399,2.41422 -2.14399,3.24536 0,0.76664 -1.155437,1.70149 -2.751298,2.2264 -2.098918,0.69029 -4.047946,0.60676 -4.513407,-0.19274 -0.402019,-0.69143 1.439652,-1.65113 3.1841,-1.65918 0.131851,-5.3e-4 0.643605,-0.25099 1.137062,-0.55441 0.660743,-0.40858 1.048562,-0.93876 1.471621,-2.0156 0.785401,-1.99913 1.030162,-2.25142 3.053295,-3.14303 0.947019,-0.41777 1.420541,-0.61113 2.054917,-0.70077 a 50.037433,50.033856 0 0 0 -3.745102,-1.81039 c -0.173736,0.18454 -0.384092,0.32714 -0.6405,0.43845 -1.060553,0.45825 -2.182516,0.39844 -2.552149,-0.13662 -0.188695,-0.27313 -0.159068,-0.64983 0.150861,-1.45518 a 50.037433,50.033856 0 0 0 -3.743389,-1.177128 c -0.07718,0.268097 -0.280022,0.674346 -0.517256,1.016418 -0.438603,0.63212 -1.015881,0.97014 -2.938944,1.72079 -2.036336,0.79478 -2.60906,0.92997 -3.842354,0.90723 -2.040078,-0.0355 -2.860475,-0.15939 -3.460474,-0.51337 -0.682326,-0.40202 -0.65831,-0.74605 0.08623,-1.23731 0.538312,-0.3552 0.851183,-0.38721 2.755896,-0.28173 1.792682,0.0995 2.32132,0.0561 3.191328,-0.26132 0.980069,-0.358092 1.711289,-1.037337 2.174227,-2.00255 a 50.037433,50.033856 0 0 0 -4.51117,-0.743688 c -5.3e-4,2.65e-4 -0.0011,7.94e-4 -0.0016,0.0011 -0.658101,0.520018 -1.979068,0.435294 -2.704964,-0.173948 -0.02595,-0.02118 -0.04996,-0.04766 -0.07427,-0.06857 A 50.037433,50.033856 0 0 0 50.030573,96.932886 Z M 47.496314,97.2968 c 1.049476,-0.02118 1.941888,0.338815 1.941888,1.114804 0,0.631826 -0.781416,1.206013 -2.173885,1.597306 -1.201658,0.33802 -1.635954,0.29396 -2.456189,-0.247024 -0.631056,-0.416761 -0.686952,-0.556105 -0.414487,-1.03241 0.52216,-0.912552 1.913207,-1.412501 3.102604,-1.432411 z m 0.0095,5.36589 c 0.249246,0.008 0.499827,0.0524 0.745321,0.139 0.780807,0.27564 0.757572,1.05981 -0.05345,1.8116 -0.358447,0.33286 -0.704236,1.01541 -0.781135,1.54348 -0.132672,0.91141 -0.08952,0.9757 1.132441,1.69534 2.943964,1.73395 2.973456,1.75982 2.973456,2.58007 0,0.53053 -0.15102,0.81912 -0.471264,0.90017 -0.843497,0.21339 -1.1902,0.12999 -2.478204,-0.59781 -1.571734,-0.88793 -2.605266,-1.94488 -2.878465,-2.94428 -0.114668,-0.41956 -0.310877,-0.85152 -0.436406,-0.95962 -0.125364,-0.10802 -0.365331,-0.52852 -0.533038,-0.93411 -0.641739,-1.55205 1.035737,-3.28883 2.780868,-3.23395 z m 16.116705,0.74109 c 0.711496,0.0185 1.267004,0.2457 1.431837,0.67956 0.251973,0.66265 -0.261664,1.87086 -1.024997,2.41169 -0.949142,0.67241 -2.195418,0.57588 -2.948475,-0.22876 -0.873445,-0.93275 -0.810278,-1.76672 0.17273,-2.27715 0.789475,-0.41068 1.657267,-0.60329 2.368778,-0.58579 z m -9.660102,1.46111 c 1.053914,0.0185 2.237343,0.36834 2.483791,0.95259 0.244666,0.5803 0.672189,1.24586 1.471601,2.29137 0.372249,0.48671 0.765297,1.13156 0.873502,1.43305 0.265929,0.74141 -0.30641,2.0538 -1.002642,2.29969 -0.772552,0.27185 -1.711541,0.25178 -2.003006,-0.0485 -0.132539,-0.13477 -0.240879,-1.00408 -0.240879,-1.93083 0,-1.83072 -0.02711,-1.86723 -2.01155,-2.73975 -1.228113,-0.53992 -1.559973,-0.96796 -1.293157,-1.66963 0.161266,-0.42357 0.902645,-0.6067 1.722351,-0.59095 z m -23.39061,1.0236 c 2.138741,-0.005 4.518668,0.0617 6.351774,0.20916 2.940697,0.23484 3.177332,0.28739 3.947507,0.87734 0.611521,0.46873 0.819276,0.83646 0.819276,1.45004 0,1.22089 -0.876592,1.32026 -2.880447,0.32687 -1.867469,-0.926 -3.800419,-1.23249 -7.772358,-1.23249 -3.368532,0 -3.751819,0.0342 -4.81378,0.48089 -1.331329,0.55475 -2.154672,1.25716 -3.001381,2.56082 -0.992719,1.52865 -0.727385,2.33329 1.249124,3.78723 1.067858,0.78559 1.394133,1.48001 0.902419,1.92182 -0.595193,0.53463 -1.113457,0.65605 -1.78578,0.41872 -0.709528,-0.25179 -3.945207,-3.67023 -3.945207,-4.16957 0,-0.16097 0.342764,-0.73971 0.761765,-1.28555 0.419019,-0.54572 1.031129,-1.56783 1.360202,-2.27106 0.708762,-1.51449 2.076388,-2.5066 3.901502,-2.83096 0.869124,-0.15489 2.766728,-0.23617 4.905464,-0.24226 z m 0.118322,4.18672 c 2.547651,0 6.369224,0.88276 7.197005,1.66222 0.120387,0.11252 0.218878,0.47143 0.218878,0.79585 0,0.32356 -0.09846,0.68504 -0.218878,0.801 -0.660518,0.63683 -1.693478,0.40988 -3.35926,-0.7421 -1.131976,-0.78176 -2.595044,-0.91482 -4.155204,-0.37694 -2.335914,0.80374 -3.594798,0.4295 -3.141706,-0.9309 0.225788,-0.67861 1.741853,-1.20776 3.459165,-1.20776 z m 12.648662,1.41263 c 0.341145,0.0132 0.767726,0.21816 1.629017,0.67011 2.118233,1.10961 2.576031,1.91986 1.489684,2.63689 -0.771297,0.50911 -1.426496,0.49658 -2.591254,-0.0495 -1.693802,-0.79376 -2.387452,-2.33856 -1.332927,-2.96848 0.326636,-0.1938 0.540147,-0.29894 0.80548,-0.28935 z m 29.455476,0.83789 c 0.963153,5.3e-4 1.542403,0.52454 1.227753,1.46987 -0.276811,0.83183 -1.122617,1.22805 -3.208733,1.50329 -1.023787,0.13476 -2.867072,0.42775 -4.096057,0.65232 -2.593481,0.47262 -3.868528,0.49809 -5.477611,0.10829 -1.293115,-0.31314 -1.947088,-0.77072 -1.961269,-1.37348 -0.02092,-0.86992 1.682515,-1.16206 3.376353,-0.5789 1.351881,0.4654 4.12863,0.37734 5.785874,-0.18083 0.772901,-0.26105 1.673303,-0.63762 2.001022,-0.83725 0.855091,-0.52087 1.693656,-0.76495 2.352668,-0.76437 z M 52.664,113.98403 c 0.619196,-0.008 1.300112,0.17686 1.895875,0.55232 1.039603,0.65762 1.084872,1.41168 0.120175,2.00983 -0.393679,0.24305 -1.240165,0.49029 -1.881409,0.547 -1.011787,0.0884 -1.23246,0.0334 -1.668135,-0.40112 -0.641543,-0.64612 -0.638191,-1.38832 0.0079,-2.11149 0.347608,-0.38902 0.905004,-0.58759 1.524193,-0.59529 z m -21.373136,1.00652 c 0.642774,0.001 1.353343,0.1525 1.747659,0.42992 0.986384,0.69878 0.735562,2.65272 -0.405214,3.1554 -0.180302,0.0792 -0.604145,0.14667 -0.941528,0.14879 -2.003672,0.008 -3.065796,-2.28947 -1.597142,-3.45738 0.237305,-0.18798 0.696277,-0.27938 1.196214,-0.27813 z m 7.892718,0.79982 c 0.399593,-0.0132 0.785554,0.10352 1.113074,0.34188 0.618504,0.45084 0.685014,0.84938 0.377931,2.26024 -0.164681,0.75658 -0.12367,1.54981 0.121578,2.35963 0.478916,1.581 0.441797,3.15977 -0.110405,4.70229 -0.243607,0.68036 -0.506197,1.85132 -0.583322,2.60197 -0.103786,1.01004 -0.278743,1.43172 -0.673692,1.62227 -2.362999,1.14046 -3.484194,-1.59214 -1.644797,-4.00864 0.767955,-1.00895 0.927066,-1.44941 0.927066,-2.56607 0,-0.74159 -0.116812,-1.43243 -0.259625,-1.53511 -0.142785,-0.10299 -0.488029,-0.67768 -0.767023,-1.278 -0.462758,-0.99566 -0.468336,-1.22659 -0.0664,-2.6317 0.242309,-0.84702 0.620859,-1.61544 0.841297,-1.70771 0.239873,-0.10087 0.484536,-0.15435 0.724299,-0.16097 z m 7.115837,1.81298 c 0.125338,10e-4 0.259466,0.0132 0.407523,0.0334 1.617678,0.26026 2.19931,1.34244 1.535361,2.85801 -0.165582,0.37655 -0.427851,1.83713 -0.58266,3.24317 -0.154885,1.40601 -0.426075,2.82767 -0.602708,3.1591 -0.273641,0.51366 -0.189913,0.81592 0.56853,2.04568 0.666817,1.08152 0.815846,1.53408 0.595151,1.80628 -0.630558,0.77755 -3.638565,0.10008 -4.021129,-0.90668 -0.184591,-0.48536 0.217343,-2.87678 0.844255,-5.02286 0.485087,-1.66063 0.602623,-3.26699 0.268807,-3.67864 -0.165873,-0.20519 -0.393976,-0.91015 -0.506751,-1.56824 -0.183585,-1.07133 -0.136246,-1.24204 0.45118,-1.62979 0.367372,-0.24172 0.666171,-0.34567 1.04242,-0.34318 z m 25.940774,0.39195 c 0.98314,-0.005 1.329628,0.2677 1.329628,0.84157 0,0.43752 -1.33935,1.26733 -2.04308,1.26733 -0.171989,0 -1.553732,0.26518 -3.070408,0.58991 -1.516664,0.32357 -2.897255,0.5869 -3.067756,0.58375 -0.700211,-0.0132 -1.352644,-0.56016 -1.352644,-1.13204 0,-0.74366 0.678967,-1.22134 1.735496,-1.22134 0.439451,0 1.73686,-0.18719 2.883406,-0.41745 1.670841,-0.33482 2.820693,-0.50752 3.585358,-0.51213 z m -13.382501,0.28644 c 0.50948,-0.008 0.921594,0.10352 1.177814,0.33482 0.771151,0.69592 -0.01509,1.30027 -2.44566,1.88325 -1.373737,0.33108 -2.737728,1.30498 -3.121327,2.23225 -0.327888,0.79254 -0.193964,4.04012 0.204925,4.9746 0.12187,0.28605 -0.02303,0.5588 -0.44204,0.83558 -1.078817,0.712 -2.462583,0.41912 -2.818994,-0.59703 -0.09987,-0.2852 0.08025,-2.04531 0.400226,-3.91262 0.627084,-3.66117 0.905142,-4.13085 2.613924,-4.41391 0.419143,-0.071 1.368317,-0.40072 2.108822,-0.73791 0.851268,-0.38735 1.667069,-0.58931 2.32209,-0.59844 z m 20.377395,2.53631 c 0.789134,-0.008 1.41485,0.13979 1.79367,0.4664 1.229678,1.05627 0.363244,1.76959 -2.149238,1.76959 -2.099543,0 -3.3592,0.28559 -4.912707,1.11027 -0.683031,0.36315 -1.387028,0.6596 -1.564265,0.6596 -0.177284,0 -0.322463,0.0813 -0.322463,0.18136 0,0.10035 -0.435564,0.24226 -0.968147,0.31814 -0.532564,0.0763 -1.303488,0.24808 -1.713155,0.3861 -1.533116,0.50961 -2.599182,0.54589 -3.258035,0.11041 -1.308158,-0.86339 -0.605477,-1.62418 1.917231,-2.07581 2.954669,-0.52913 5.31041,-1.11957 6.256788,-1.56807 1.83601,-0.87004 3.605038,-1.33962 4.92025,-1.35778 z m -46.616054,0.4964 c 0.06696,1.8e-4 0.134949,0.002 0.204078,0.008 1.281523,0.0818 1.788803,0.72992 1.607659,2.05309 -0.07593,0.55452 -0.315842,1.19598 -0.533038,1.42556 -0.598162,0.63217 -2.136822,0.56537 -2.881762,-0.12603 -1.478558,-1.3704 -0.472447,-3.36588 1.60306,-3.36035 z m 28.153618,1.35449 c 0.522755,-0.005 0.966993,0.12603 1.184047,0.39277 0.264549,0.32479 0.146545,0.63292 -0.633923,1.647 l -0.959603,1.2465 0.570512,0.64416 c 0.32109,0.36315 1.211402,0.87221 2.038487,1.16646 1.872592,0.66622 2.321603,1.1053 1.528458,1.49408 -1.060289,0.5197 -3.983176,0.21419 -5.109536,-0.53262 -0.6245,-0.41486 -0.717357,-0.70723 -0.897829,-2.83533 l -0.201139,-2.3729 0.826508,-0.42817 c 0.529943,-0.27519 1.13124,-0.41652 1.653995,-0.42129 z m -34.802627,2.2016 c 0.358081,0.008 0.621708,0.13291 0.892559,0.35192 0.611286,0.4983 0.519398,1.20609 -0.219858,1.69404 -0.507837,0.33607 -2.659599,0.85524 -3.538362,0.85524 -0.349405,0 -1.264993,0.22028 -2.034549,0.49147 -1.66634,0.5856 -2.940513,0.61308 -4.55482,0.0993 -0.683764,-0.21711 -1.838706,-0.38401 -2.709558,-0.38735 -1.777089,-0.008 -2.680092,0.41112 -3.651085,1.68976 -0.3386434,0.4462 -0.8334166,0.86656 -1.0995992,0.93397 -0.5918866,0.15092 -0.7076436,0.14377 -1.5524493,-0.08 -0.538036,-0.14138 -0.6704065,-0.33312 -0.6704065,-0.96166 0,-0.7954 0.5130492,-1.28695 2.0677449,-1.98166 0.3630728,-0.16177 1.0658517,-0.51634 1.5619811,-0.78676 1.150938,-0.62725 1.921799,-0.75701 3.222878,-0.54274 0.573533,0.0958 1.579222,0.26265 2.234688,0.37236 0.655466,0.11014 2.0631,0.16813 3.128232,0.12974 1.681945,-0.0612 2.191295,-0.18216 3.873239,-0.90829 1.593217,-0.68817 2.452578,-0.98727 3.049362,-0.97115 z m 53.875026,0.99849 c 0.626522,2.9e-4 1.229129,0.0334 1.70361,0.12417 1.53825,0.27226 2.837136,1.2923 2.694448,2.11362 -0.0793,0.45594 -0.251682,0.5606 -0.989836,0.59783 -0.491595,0.0212 -1.412156,-0.0789 -2.045714,-0.2314 -0.633584,-0.15251 -1.840071,-0.33689 -2.681292,-0.41152 -2.325302,-0.20546 -3.27115,-0.99609 -2.050991,-1.71552 0.497741,-0.29314 1.991439,-0.47872 3.369775,-0.47821 z m -48.570093,1.90437 c 0.989783,0 1.418892,0.465 2.034883,2.20388 0.340501,0.96134 0.30729,1.09796 -0.591537,2.44202 -0.298384,0.44626 -0.6349,1.19836 -0.747964,1.67149 -0.20278,0.84859 -1.078195,1.96162 -2.043096,2.5985 -0.486586,0.3202 -2.248198,0.45171 -2.636605,0.19513 -0.37747,-0.24941 -0.197088,-1.35653 0.300027,-1.84094 0.274364,-0.26685 1.003443,-0.85417 1.620151,-1.30411 1.517491,-1.10718 1.698887,-1.87673 0.846221,-3.59331 -0.642297,-1.29307 -0.651339,-1.38846 -0.175483,-1.86762 0.353551,-0.35733 0.764595,-0.50535 1.393393,-0.50535 z m 40.154381,0.49813 c 0.836918,0.0212 1.527357,0.35899 1.971118,0.97543 0.657754,0.91472 0.590799,1.2287 -0.402853,1.88457 -0.942256,0.62192 -1.303106,0.66706 -2.329988,0.29145 -2.55266,-0.93191 -2.771708,-2.35463 -0.460772,-2.99191 0.431373,-0.11914 0.842086,-0.17104 1.222511,-0.16018 z m -56.532667,2.64819 c 0.974108,0 2.07054,0.6032 2.055584,1.13082 -0.0349,1.23376 -0.605643,3.08042 -1.052932,3.40655 -0.501603,0.36609 -1.906918,0.51631 -2.313888,0.24676 -0.109256,-0.0731 -0.199577,-0.58097 -0.200456,-1.13082 -9e-4,-0.54975 -0.141891,-1.33334 -0.313506,-1.74121 -0.269685,-0.64093 -0.226368,-0.82105 0.319765,-1.32724 0.455124,-0.42169 0.876317,-0.58573 1.505454,-0.58573 z m 25.127088,1.50901 c 1.512446,-0.0132 2.090205,0.0842 3.454887,0.59465 0.901263,0.33691 2.067533,0.67051 2.591911,0.74244 1.16766,0.15965 3.366819,1.52421 3.366819,2.08884 6e-6,0.22796 -0.224411,0.66272 -0.498534,0.96913 -0.977308,1.09198 -2.262469,0.82333 -3.385557,-0.70795 -1.443316,-1.96789 -2.702263,-2.24504 -6.059935,-1.33503 -3.063808,0.83053 -4.276491,0.30437 -3.013212,-1.30858 0.616785,-0.78722 1.41613,-1.02275 3.543621,-1.0435 z m 33.921567,1.50286 c 0.28365,-0.008 0.533772,0.0704 0.928708,0.25973 1.039702,0.5 1.273554,1.41486 0.601061,2.35005 -0.293864,0.40945 -0.53402,1.02963 -0.53402,1.38009 0,0.62878 0.945091,2.04451 1.364801,2.04451 0.118957,0 0.436445,0.30728 0.705575,0.68086 0.468945,0.65227 0.462294,0.70535 -0.155573,1.278 -0.980726,0.90909 -2.20952,0.7649 -3.327045,-0.3907 -0.367205,-0.37859 -0.53208,-1.29339 -0.699989,-3.87772 l -0.219804,-3.38119 0.750603,-0.22716 c 0.23291,-0.0712 0.415445,-0.10961 0.585622,-0.11676 z m 21.975851,0.67662 c 1.369305,-0.0334 1.971253,0.96262 0.87054,1.88619 -1.001816,0.84061 -1.051366,1.69773 -0.162245,2.79998 0.912915,1.13204 0.985753,1.86154 0.231242,2.31203 -0.740177,0.44233 -1.321031,0.40948 -2.049672,-0.11676 -1.175288,-0.84846 -1.658292,-1.72302 -1.429223,-2.58839 0.116945,-0.44225 0.299783,-1.42301 0.406604,-2.18001 0.225577,-1.60237 0.343816,-1.76231 1.501511,-2.02858 0.224305,-0.0516 0.435738,-0.0784 0.631302,-0.0834 z m -7.75667,1.03927 c 1.430481,0.0334 2.096577,0.60572 1.509732,1.54088 -0.468625,0.74658 -0.91829,0.85148 -2.986591,0.69712 -1.404092,-0.10511 -2.003795,-0.0376 -3.624472,0.38777 -1.06811,0.28311 -2.14977,0.51281 -2.403607,0.51281 -0.972285,0 -1.622067,-1.07731 -1.103207,-1.82883 0.404187,-0.5855 1.020109,-0.72113 3.287288,-0.725 0.921633,-9.5e-4 2.245569,-0.13503 2.94224,-0.2969 0.920154,-0.21393 1.728406,-0.30644 2.378617,-0.28684 z m -29.006901,0.38735 c 0.581296,-0.005 1.078242,0.0159 1.395693,0.071 1.76439,0.29187 2.385475,1.69604 0.942529,2.1299 -0.621079,0.18639 -1.026148,0.1525 -2.314561,-0.20228 -0.859044,-0.23511 -1.802938,-0.4265 -2.097308,-0.4265 -1.40908,0 -2.345416,0.81581 -2.70333,2.3547 -0.112365,0.48393 -0.420237,1.03676 -0.683547,1.22889 -1.10146,0.80329 -2.22384,0.24385 -2.22384,-1.10699 0,-1.11507 1.492119,-3.04367 2.727304,-3.52519 0.708485,-0.27686 3.213194,-0.51141 4.95706,-0.52293 z m -17.908058,1.38716 c 0.414107,-0.002 0.748125,0.0733 0.977675,0.22266 0.615228,0.40694 0.393555,1.08656 -0.558998,1.71513 -0.729798,0.48178 -1.17031,0.60572 -2.160088,0.6063 -0.683831,6.1e-4 -2.327566,0.0564 -3.652396,0.12602 -2.259909,0.11465 -2.448419,0.0966 -3.053636,-0.33396 -0.799724,-0.56651 -0.806561,-0.78425 -0.04091,-1.32651 0.77763,-0.55084 1.73956,-0.70456 2.778899,-0.44406 1.243676,0.31271 2.468278,0.25311 3.767419,-0.1856 0.74494,-0.25258 1.409781,-0.3786 1.942206,-0.38194 z m -14.920482,1.95166 c 0.343074,0.008 0.70164,0.0731 1.048003,0.1938 0.299191,0.10538 0.885113,0.57655 1.302035,1.04616 1.675684,1.88711 3.864713,2.6794 6.680731,2.41774 4.132387,-0.38483 4.323674,-0.38525 4.739837,-0.008 0.533499,0.48141 0.505508,1.27781 -0.0641,1.81446 h -2.65e-4 c -0.505424,0.47646 -1.3637,0.53127 -3.111142,0.20016 -0.573534,-0.10882 -2.225254,-0.25655 -3.670474,-0.32272 l -2.627548,-0.12761 -1.319779,-0.92235 c -0.725874,-0.50728 -2.124525,-1.33109 -3.107858,-1.83043 -1.295353,-0.65793 -1.787747,-1.03649 -1.787747,-1.37419 0,-0.67945 0.889334,-1.11665 1.918542,-1.08652 z m 20.102993,0.79886 c 0.37813,0.005 0.712502,0.12841 0.90932,0.37027 0.429239,0.52936 0.363032,1.7331 -0.14689,2.66739 -0.673835,1.23453 -0.553401,2.97663 0.306374,4.42429 0.78786,1.32701 0.927413,2.14536 0.46137,2.70663 -0.833891,1.00434 -1.256485,1.86686 -1.10748,2.25958 0.09224,0.24225 0.328556,0.85414 0.525482,1.35812 0.340602,0.87172 0.311039,0.97572 -0.602384,2.13423 -1.281849,1.62553 -1.290962,2.93777 -0.0367,5.4782 0.500179,1.0137 0.909309,2.15881 0.909309,2.54441 0,1.18407 -1.908285,2.55585 -4.048717,2.91052 -0.447187,0.0747 -1.361564,0.34107 -2.03192,0.59436 h 5.29e-4 c -0.670372,0.25444 -1.499991,0.46172 -1.843291,0.4627 -0.785782,0.003 -1.695178,-0.64223 -1.559681,-1.1066 0.143739,-0.49264 1.95265,-1.25073 2.984626,-1.25073 0.473909,0 1.381166,-0.17606 2.016151,-0.38904 1.328285,-0.4471 1.968184,-1.38181 1.653332,-2.41435 -0.217263,-0.71258 -1.328605,-2.67859 -1.710846,-3.02644 -0.136008,-0.1247 -0.325093,-0.65787 -0.419986,-1.18705 -0.148901,-0.82963 -0.07133,-1.04261 0.561961,-1.5448 0.404023,-0.31984 0.888369,-0.77607 1.076588,-1.01232 0.441989,-0.5551 0.436977,-1.98486 -0.01033,-3.09087 -0.322129,-0.79498 -0.28294,-0.98065 0.447579,-2.11658 1.00973,-1.57006 1.001853,-1.81415 -0.113397,-3.40441 -0.907236,-1.29362 -0.910149,-1.30747 -0.436756,-2.24809 0.359157,-0.71376 0.429287,-1.32783 0.284232,-2.49749 -0.174239,-1.40508 -0.131216,-1.6018 0.458119,-2.09174 0.430724,-0.35899 0.988795,-0.53948 1.474897,-0.53101 z m 13.482719,0.68775 c 1.004993,0.0212 1.970725,0.57514 2.360226,1.52984 0.411442,1.00879 0.05769,1.54107 -1.309604,1.96921 -1.297454,0.4053 -1.975126,0.41197 -2.821281,0.0159 -0.971391,-0.44901 -0.950331,-2.20358 0.0346,-2.96003 0.515146,-0.39487 1.132166,-0.57265 1.735173,-0.55904 z m -7.779017,2.44885 c 0.791962,0 1.469618,0.75513 1.494609,1.66601 0.02542,0.93352 0.77786,1.8698 1.788734,2.22654 1.017737,0.36026 5.676921,0.12708 7.388928,-0.36858 1.607137,-0.46558 2.371278,-0.4749 3.322125,-0.0376 1.021546,0.465 1.460682,0.87103 1.471953,1.36145 0.02039,0.87062 -1.079638,1.00917 -4.396439,0.55407 -0.538876,-0.0747 -1.544571,-0.0334 -2.234687,0.0789 -3.686222,0.6252 -7.723578,0.30018 -8.716917,-0.69919 -0.506033,-0.50982 -1.624752,-2.67864 -1.624752,-3.14994 0,-0.58525 0.9643,-1.62621 1.506446,-1.62621 z M 17.36899,147.0451 c 2.347974,0 2.358901,0.86209 0.02486,1.97128 -1.29962,0.61758 -1.623764,1.18846 -1.623764,2.85998 0,1.2972 -0.102576,1.6583 -0.544869,1.92264 -0.687388,0.41194 -1.062957,0.41155 -1.578412,-0.001 -0.496826,-0.39609 -0.495447,-5.1122 0.0017,-5.72523 0.453202,-0.55893 2.150505,-1.02777 3.720427,-1.02777 z m -11.4508024,0.0238 c 0.8616005,0.0132 1.8258649,0.18295 2.3421513,0.4749 0.6033779,0.34065 0.657919,0.5492 0.6618613,2.53999 0.00289,1.42481 0.1592935,2.46262 0.456466,3.02585 0.4378045,0.82981 0.361351,1.60056 -0.1587429,1.60056 -0.1394312,0 -0.4321228,0.0334 -0.650359,0.0855 -0.5217807,0.11226 -1.5094036,-0.15912 -2.0043174,-0.55327 -0.2574511,-0.20546 -0.3328485,-0.57197 -0.2162463,-1.05412 0.5756468,-2.38018 0.5762079,-2.36302 -0.09036,-2.98092 -0.3552343,-0.33027 -1.0418105,-0.85981 -1.5258304,-1.17925 -0.9921654,-0.65489 -1.1168214,-1.21337 -0.3792338,-1.7003 0.2864297,-0.1885 0.8944759,-0.27018 1.5646073,-0.25973 z m 26.7814144,0.18428 c 0.443673,0.005 0.985478,0.0985 1.64611,0.28104 0.588281,0.16177 1.939023,0.29396 3.001708,0.29396 1.062685,0 2.276753,0.10379 2.698059,0.23141 0.89049,0.26725 1.250894,0.98305 0.863638,1.71459 -0.217263,0.41154 -0.479819,0.51941 -1.309262,0.544 -1.142614,0.0291 -2.069088,-0.0858 -2.526838,-0.33066 -0.163861,-0.0858 -0.834215,-0.21816 -1.489682,-0.29354 -0.655466,-0.0754 -1.881443,-0.26317 -2.724347,-0.41869 -1.72624,-0.31771 -2.185365,-0.82876 -1.429874,-1.58976 0.291518,-0.29312 0.700055,-0.43752 1.270488,-0.43055 z m 39.589786,2.00903 c 0.362243,0.005 0.76297,0.0543 1.190953,0.14562 1.542404,0.32687 2.175874,0.73585 2.175874,1.40376 0,0.42296 -0.239238,0.65852 -0.968489,0.95195 -1.338145,0.53842 -2.042007,0.49034 -3.133485,-0.2134 -1.131936,-0.7305 -1.401304,-1.21424 -0.971101,-1.74477 0.299699,-0.369 0.909523,-0.5559 1.706248,-0.54189 z m 8.935784,0.31729 c 0.60912,0.0132 1.302942,0.29727 2.005306,0.83985 1.517979,1.17051 1.429297,2.05203 -0.264311,2.63199 -0.943651,0.32187 -0.986714,0.32354 -1.821925,0.0564 -1.447137,-0.46367 -2.092622,-2.18698 -1.151194,-3.07411 0.335809,-0.31647 0.758289,-0.46686 1.232036,-0.45452 z m -52.063701,1.84361 c 0.674011,-0.0132 1.519375,0.12762 2.498247,0.42688 1.079749,0.33232 2.745441,0.62263 5.649815,0.98742 1.113233,0.13874 2.286427,0.41197 2.607029,0.60239 0.710312,0.42385 0.774283,1.50916 0.114694,1.94454 -0.714974,0.47204 -1.162118,0.40029 -3.322453,-0.52569 -1.863749,-0.79984 -3.558745,-1.12582 -5.892347,-1.13159 -3.121756,-0.008 -3.426303,-0.0985 -3.426303,-1.00169 0,-0.83501 0.647971,-1.28126 1.771321,-1.30281 z m 46.973782,2.88047 c 0.717102,0.008 1.424494,0.1668 1.852822,0.46884 0.884323,0.62121 0.812856,1.23604 -0.223035,1.9197 -0.976402,0.64454 -1.532408,0.69008 -2.904435,0.23855 -1.414651,-0.46545 -1.725353,-1.54377 -0.637542,-2.21263 0.468436,-0.28772 1.195208,-0.42479 1.912303,-0.41531 z m -15.447599,1.73644 c 0.977467,-0.005 1.891547,0.15965 2.221206,0.50201 0.410359,0.42515 0.24321,1.44549 -0.287152,1.75102 -0.286651,0.16416 -0.990733,0.43702 -1.564278,0.60244 -1.183114,0.34231 -2.298624,0.4834 -3.034234,0.38401 -1.068491,-0.14774 -1.02398,-2.05492 0.06317,-2.7043 0.582972,-0.34773 1.623968,-0.52748 2.601443,-0.53397 z m -30.978026,4.77361 c 1.792843,-0.0132 3.122889,0.96117 2.075298,1.51976 -0.204846,0.10882 -1.595207,0.4744 -3.089455,0.81083 -1.494249,0.33688 -2.874603,0.61202 -3.067434,0.61202 -0.493308,0 -1.813054,-0.90794 -1.813054,-1.24729 0,-0.6377 1.067956,-1.14416 2.985605,-1.41552 1.061711,-0.15144 2.370706,-0.27601 2.90904,-0.28101 z m 3.492355,4.35397 c 0.573981,-0.005 0.972029,0.0898 1.197857,0.28812 0.230924,0.20254 0.424049,0.46963 0.429183,0.5965 0.02039,0.48952 -1.803164,1.39312 -3.634983,1.80157 -2.255821,0.50286 -1.969622,0.4954 -2.984621,0.08 -1.621018,-0.66336 -0.889303,-1.52849 1.898828,-2.24494 1.327062,-0.34067 2.355749,-0.51438 3.093728,-0.52097 z m 28.499495,1.24314 h 3.676047 l 3.27711,1.04382 c 1.802531,0.57389 3.877194,1.2376 4.610358,1.47477 0.733158,0.23723 1.536316,0.67228 1.7848,0.96691 0.406938,0.48226 0.404478,0.56714 -0.02595,0.85091 -0.563875,0.37154 -2.539086,0.54933 -3.399014,0.30647 -0.332726,-0.0959 -1.111245,-0.5533 -1.730238,-1.01931 -2.116048,-1.59328 -2.406512,-1.65523 -7.757653,-1.65523 -4.501353,0 -4.750633,-0.0159 -5.153912,-0.42047 -0.382133,-0.37858 -0.35178,-0.47586 0.309625,-0.98316 0.733012,-0.56265 0.733375,-0.56294 4.408578,-0.56294 z m -10.66899,0.51255 c 0.192349,0.002 0.398597,0.0159 0.61881,0.0564 0.458307,0.0762 0.840953,0.38984 1.170252,0.95844 0.609697,1.05377 0.619724,1.76717 0.03378,2.51361 -0.347611,0.44406 -0.6613,0.57994 -1.334571,0.57994 -0.717837,0 -0.984343,-0.13503 -1.445641,-0.7372 -1.418008,-1.84886 -0.901573,-3.38871 0.956317,-3.37137 z m -6.442471,2.73837 c 0.482747,-0.005 0.846683,0.22187 1.331617,0.82973 0.612114,0.76665 0.668762,1.10565 0.676642,4.09893 0.0053,2.23739 0.121207,3.35267 0.365704,3.54743 1.082076,0.86127 0.960241,3.21703 -0.223062,4.31389 -0.775292,0.71872 -1.87054,0.76301 -2.526176,0.10299 -0.41536,-0.41877 -0.419985,-0.55116 -0.04128,-1.15076 0.78951,-1.24705 0.873391,-2.2022 0.309291,-3.52408 -0.348942,-0.81769 -0.535185,-1.94938 -0.544211,-3.30768 -0.01006,-1.56691 -0.139397,-2.22635 -0.535013,-2.73425 -0.286737,-0.36772 -0.521209,-0.88922 -0.521209,-1.15817 0,-0.56341 0.746422,-1.00858 1.70691,-1.01766 z m -8.764904,0.27437 c 0.08944,0.002 0.168573,0.008 0.236934,0.0159 1.978703,0.28726 3.470204,1.74157 3.754276,3.66172 0.14681,0.9923 0.0969,1.13408 -0.4729,1.33533 -0.543393,0.19089 -0.743526,0.15091 -1.356258,-0.28727 -0.395328,-0.28268 -0.807701,-0.85902 -0.916222,-1.28301 -0.21202,-0.82822 -1.544894,-1.76079 -2.51665,-1.76079 -0.545789,0 -2.416446,0.44183 -3.368463,0.7946 -0.857501,0.31817 -4.784427,0.65105 -5.961686,0.50525 -1.368345,-0.16919 -2.004975,-0.57981 -2.004975,-1.2914 0,-0.38317 0.24496,-0.65929 0.791343,-0.89551 0.742766,-0.3202 0.91545,-0.32144 2.798615,-0.0212 2.60221,0.41488 2.500603,0.4196 5.687281,-0.28062 1.56728,-0.34313 2.702767,-0.51276 3.328699,-0.49645 z m 28.03546,1.12614 c 1.696484,-5.1e-4 1.966612,0.0863 2.459478,0.39277 0.382881,0.23723 0.696041,0.58973 0.696041,0.7834 0,0.61896 -1.173842,0.85658 -4.320171,0.87483 -1.638679,0.008 -3.602706,0.0855 -4.364556,0.1705 -1.281402,0.14085 -1.422599,0.11411 -1.886659,-0.35022 -0.597272,-0.60165 -0.385384,-1.21372 0.535998,-1.5465 0.382342,-0.13715 2.295705,-0.26132 4.646831,-0.2973 0.943493,-0.0132 1.667551,-0.0212 2.233038,-0.0212 z M 51.60529,173.8483 c 1.361797,8e-5 2.599468,1.33779 2.599468,2.9456 0,0.7761 -0.145513,1.14602 -0.54486,1.38462 -0.77664,0.46402 -1.91269,0.41028 -2.420703,-0.11676 -0.259546,-0.26809 -0.47651,-1.14848 -0.552761,-2.24101 -0.117421,-1.68505 -0.0866,-1.80671 0.493271,-1.92831 0.142442,-0.0238 0.284817,-0.0376 0.425652,-0.0376 z m -12.332847,3.18084 0.688154,0.448 c 0.573616,0.37276 0.686589,0.65187 0.683219,1.67261 -0.0061,1.64742 -0.712356,2.42661 -2.840681,3.13389 -1.891027,0.62847 -2.216339,0.63676 -4.603124,0.121 -1.251055,-0.26979 -2.212416,-0.35234 -3.202837,-0.27395 -0.778363,0.0604 -2.073352,0.16601 -2.877813,0.23432 -1.096926,0.0921 -1.711701,0.0291 -2.458157,-0.22717 -0.757179,-0.26397 -1.950339,-0.36942 -4.986639,-0.44088 -3.252147,-0.076 -4.173745,-0.16309 -4.977106,-0.47686 -2.092769,-0.81488 -1.423582,-1.9286 1.159078,-1.9286 0.815888,0 1.968475,0.085 2.561017,0.18983 3.491063,0.61711 6.43579,0.87205 10.177358,0.88121 3.323756,0.008 4.175193,0.0712 4.830869,0.35232 1.162338,0.50262 2.946439,0.44982 3.744413,-0.11015 0.491315,-0.3444 0.647731,-0.69886 0.647731,-1.46402 0,-0.78761 0.159412,-1.12958 0.727259,-1.56037 z m 1.502829,7.37386 c 1.500984,0 2.312485,1.17607 1.501514,2.17618 -0.233361,0.28812 -0.628297,0.38025 -1.62212,0.38025 -1.698575,0 -3.021981,-0.67212 -2.741112,-1.39203 0.219407,-0.56241 1.698885,-1.16434 2.861718,-1.16434 z m -9.899337,0.41653 c 0.238947,0.003 0.496567,0.0159 0.771953,0.0545 2.529179,0.31358 3.071251,1.439 1.186355,2.4645 -1.775588,0.96598 -3.330134,0.73233 -3.875211,-0.58213 -0.510417,-1.23093 0.244295,-1.95762 1.916903,-1.93744 z m 36.575591,0.0334 c 0.958533,2.6e-4 1.621037,0.0159 1.755867,0.0522 0.806688,0.20518 0.575077,0.98321 -0.463697,1.56018 -0.815356,0.45271 -1.128796,0.5112 -2.160094,0.40196 -4.591597,-0.48059 -6.842397,-0.31941 -9.383705,0.66884 -1.424399,0.5543 -3.213655,0.78001 -3.690526,0.46558 -0.332432,-0.21843 -0.22195,-1.15192 0.173948,-1.4677 1.26366,-1.00821 4.221976,-1.48002 10.235526,-1.63249 1.319484,-0.0291 2.574248,-0.05 3.532779,-0.0495 z m -19.163756,0.35695 c 0.162907,0.005 0.335891,0.0238 0.518579,0.0651 0.515932,0.10749 0.631297,0.28896 0.631297,0.9888 0,0.86818 -0.238576,1.8137 -1.101253,4.36313 -0.403271,1.19217 -0.418556,1.55098 -0.09793,2.30682 0.208896,0.49219 0.560433,0.99436 0.781487,1.11543 0.221182,0.12259 0.488961,0.52577 0.595149,0.89948 0.155521,0.54681 0.05954,0.77331 -0.490962,1.16005 -0.84277,0.59206 -1.738168,0.6112 -2.800594,0.0588 -0.79516,-0.41361 -0.806489,-0.44851 -0.569853,-1.81918 0.132725,-0.76876 0.252,-2.5922 0.265137,-4.05225 0.03212,-3.61168 0.694124,-5.13708 2.268855,-5.08738 z m -29.200138,1.004 a 50.037433,50.033856 0 0 0 4.458202,3.12884 c -0.01734,-0.0755 -0.03427,-0.15038 -0.04831,-0.22399 -0.400494,-2.10509 -1.125055,-2.7465 -4.409897,-2.90525 z m 18.692826,4.08328 c -0.80454,0 -1.188629,0.20889 -3.191656,1.73347 -0.793751,0.60432 -1.022775,0.66052 -3.120676,0.76526 -0.559321,0.0238 -0.984342,0.0485 -1.347385,0.0485 a 50.037433,50.033856 0 0 0 7.73169,2.58608 c -0.978435,-0.56569 -0.779568,-1.13231 0.7105,-2.02736 1.140588,-0.6851 1.340811,-0.91732 1.340811,-1.55436 0,-0.89497 -0.897786,-1.55033 -2.123284,-1.55033 z"
       id="path930"
       inkscape:connector-curvature="0" />
  </g>
</svg>
